<svg width="16" height="16" viewBox="0 0 16 16" fill="none" xmlns="http://www.w3.org/2000/svg">
<g clip-path="url(#clip0_193_5240)">
<path d="M6.0013 11.3337H4.0013C3.56356 11.3337 3.13011 11.2474 2.72569 11.0799C2.32127 10.9124 1.95381 10.6669 1.64428 10.3573C1.01916 9.73223 0.667969 8.88438 0.667969 8.00033C0.667969 7.11627 1.01916 6.26842 1.64428 5.6433C2.2694 5.01818 3.11725 4.66699 4.0013 4.66699H6.0013M10.0013 4.66699H12.0013C12.439 4.66699 12.8725 4.75321 13.2769 4.92073C13.6813 5.08824 14.0488 5.33377 14.3583 5.6433C14.6679 5.95283 14.9134 6.3203 15.0809 6.72471C15.2484 7.12913 15.3346 7.56259 15.3346 8.00033C15.3346 8.43806 15.2484 8.87152 15.0809 9.27594C14.9134 9.68036 14.6679 10.0478 14.3583 10.3573C14.0488 10.6669 13.6813 10.9124 13.2769 11.0799C12.8725 11.2474 12.439 11.3337 12.0013 11.3337H10.0013V4.66699Z" stroke="#999999" stroke-width="1.5" stroke-linecap="round" stroke-linejoin="round"/>
<path d="M5.33203 8H10.6654" stroke="#999999" stroke-width="1.5" stroke-linecap="round" stroke-linejoin="round"/>
</g>
<defs>
<clipPath id="clip0_193_5240">
<rect width="16" height="16" fill="white"/>
</clipPath>
</defs>
</svg>
