<svg width="22" height="22" viewBox="0 0 22 22" fill="none" xmlns="http://www.w3.org/2000/svg">
<g clip-path="url(#clip0_193_5268)">
<path d="M18.4537 5.44513C18.4148 5.26193 18.2767 5.11586 18.096 5.06665C17.9153 5.01745 17.7222 5.07337 17.5958 5.21154L13.2402 9.97113C13.1311 10.0902 13.0864 10.2547 13.1199 10.4126C13.1535 10.5706 13.2613 10.7026 13.4093 10.7671L19.3243 13.3436C19.496 13.4184 19.6951 13.391 19.8402 13.2725C19.9853 13.154 20.052 12.9644 20.013 12.7812L18.4537 5.44513Z" fill="#149F75" stroke="#149F75" stroke-linecap="round" stroke-linejoin="round"/>
<path d="M10.9463 4.99551L2.87657 6.71078C1.79614 6.94043 1.10645 8.00246 1.3361 9.0829L2.89544 16.419C3.12509 17.4994 4.18712 18.1891 5.26756 17.9595L13.3373 16.2442C14.4177 16.0146 15.1074 14.9525 14.8777 13.8721L13.3184 6.53598C13.0888 5.45555 12.0267 4.76585 10.9463 4.99551Z" fill="#149F75" stroke="#149F75" stroke-linecap="round" stroke-linejoin="round"/>
</g>
<defs>
<clipPath id="clip0_193_5268">
<rect width="18" height="18" fill="white" transform="translate(0 4) rotate(-12)"/>
</clipPath>
</defs>
</svg>
