<svg width="26" height="28" viewBox="0 0 26 28" fill="none" xmlns="http://www.w3.org/2000/svg">
<path d="M15.2416 11.7869C15.7623 12.2238 15.7416 13.1057 15.1955 13.7565C15.1318 13.8324 15.0639 13.9019 14.9923 13.9647L8.53375 19.7671C8.25328 20.0137 7.82709 20.0253 7.53222 19.7778C7.23759 19.5306 7.17476 19.1096 7.3681 18.7906L11.961 11.4224C12.0106 11.3412 12.0673 11.2617 12.1313 11.1854C12.6774 10.5346 13.5424 10.3611 14.0631 10.798L15.2416 11.7869Z" stroke="#149F75" stroke-miterlimit="10"/>
<path d="M11.7877 11.7002L13.857 13.4365" stroke="#149F75" stroke-miterlimit="10"/>
<path d="M15.0058 11.5892C15.6566 12.1353 16.7156 11.945 17.371 11.1639C18.5083 9.80861 18.3353 8.53363 17.8967 7.18668C17.8967 7.18668 17.4934 7.52074 17.3519 7.62288C16.2441 8.42328 15.2524 7.46586 14.3068 8.59277C13.6514 9.3739 13.6479 10.4498 14.2987 10.9959" stroke="#149F75" stroke-miterlimit="10"/>
</svg>
