<svg width="28" height="28" viewBox="0 0 28 28" fill="none" xmlns="http://www.w3.org/2000/svg">
<path d="M14 12.0003C14.9205 12.0003 15.6667 11.2541 15.6667 10.3337C15.6667 9.41318 14.9205 8.66699 14 8.66699C13.0796 8.66699 12.3334 9.41318 12.3334 10.3337C12.3334 11.2541 13.0796 12.0003 14 12.0003Z" stroke="#149F75" stroke-miterlimit="10"/>
<path d="M13.1417 11.7627L9.64172 19.7044C10.8504 20.7555 12.3983 21.3344 14.0001 21.3344C15.6019 21.3344 17.1497 20.7555 18.3584 19.7044L14.8584 11.7627" stroke="#149F75" stroke-miterlimit="10"/>
<path d="M14 8.66667C15.1046 8.66667 16 8.29357 16 7.83333C16 7.3731 15.1046 7 14 7C12.8954 7 12 7.3731 12 7.83333C12 8.29357 12.8954 8.66667 14 8.66667Z" stroke="#149F75" stroke-miterlimit="10"/>
<path d="M16.9833 16.5837C17.8208 17.4295 19.0208 17.9795 20.4833 18.0003C20.1166 17.542 19.9999 16.9628 19.9999 16.3337C19.9993 16.0076 20.0586 15.6841 20.1749 15.3795L20.5124 14.5045C20.6149 14.2415 20.6672 13.9617 20.6666 13.6795C20.6673 13.2128 20.5288 12.7564 20.2687 12.3688C20.0087 11.9813 19.6389 11.6801 19.2067 11.5038C18.7745 11.3275 18.2996 11.2842 17.8427 11.3793C17.3857 11.4745 16.9675 11.7037 16.6416 12.0378L15.4833 13.1837" stroke="#149F75" stroke-miterlimit="10"/>
<path d="M11.0167 16.5878C10.1792 17.4337 8.97921 17.9837 7.51671 18.0003C7.88338 17.542 8.00005 16.9628 8.00005 16.3337C8.00073 16.0076 7.94141 15.6841 7.82505 15.3795L7.48755 14.5045C7.38506 14.2415 7.33277 13.9617 7.33338 13.6795C7.33267 13.2128 7.4712 12.7564 7.73127 12.3688C7.99133 11.9813 8.3611 11.6801 8.79328 11.5038C9.22545 11.3275 9.70039 11.2842 10.1573 11.3793C10.6143 11.4745 11.0325 11.7037 11.3584 12.0378L12.5167 13.1837" stroke="#149F75" stroke-miterlimit="10"/>
</svg>
