<svg width="28" height="28" viewBox="0 0 28 28" fill="none" xmlns="http://www.w3.org/2000/svg">
<g clip-path="url(#clip0_459_6714)">
<path d="M12.0876 13.0082L15.9126 9.6582" stroke="#149F75" stroke-miterlimit="10"/>
<path d="M8.07104 10.6748L10.596 12.9915" stroke="#149F75" stroke-miterlimit="10"/>
<path d="M16.6667 10C17.219 10 17.6667 9.55228 17.6667 9C17.6667 8.44772 17.219 8 16.6667 8C16.1145 8 15.6667 8.44772 15.6667 9C15.6667 9.55228 16.1145 10 16.6667 10Z" stroke="#149F75" stroke-miterlimit="10"/>
<path d="M7.3335 11C7.88578 11 8.3335 10.5523 8.3335 10C8.3335 9.44772 7.88578 9 7.3335 9C6.78121 9 6.3335 9.44772 6.3335 10C6.3335 10.5523 6.78121 11 7.3335 11Z" stroke="#149F75" stroke-miterlimit="10"/>
<path d="M11.3335 14.667C11.8858 14.667 12.3335 14.2193 12.3335 13.667C12.3335 13.1147 11.8858 12.667 11.3335 12.667C10.7812 12.667 10.3335 13.1147 10.3335 13.667C10.3335 14.2193 10.7812 14.667 11.3335 14.667Z" stroke="#149F75" stroke-miterlimit="10"/>
<path d="M17.4668 9.59961L19.8668 11.3996" stroke="#149F75" stroke-miterlimit="10"/>
<path d="M20.6667 13C21.219 13 21.6667 12.5523 21.6667 12C21.6667 11.4477 21.219 11 20.6667 11C20.1145 11 19.6667 11.4477 19.6667 12C19.6667 12.5523 20.1145 13 20.6667 13Z" stroke="#149F75" stroke-miterlimit="10"/>
<path d="M20.6668 14.667V20.0003H7.3335V12.667" stroke="#149F75" stroke-miterlimit="10"/>
<path d="M11.3335 19.9997V16.333" stroke="#149F75" stroke-miterlimit="10"/>
<path d="M16.6667 20.0003V11.667" stroke="#149F75" stroke-miterlimit="10"/>
</g>
<defs>
<clipPath id="clip0_459_6714">
<rect width="16" height="16" fill="white" transform="translate(6 6)"/>
</clipPath>
</defs>
</svg>
