<svg width="28" height="28" viewBox="0 0 28 28" fill="none" xmlns="http://www.w3.org/2000/svg">
<path d="M19.3333 10.667H8.66659C7.93021 10.667 7.33325 11.2639 7.33325 12.0003V18.667C7.33325 19.4034 7.93021 20.0003 8.66659 20.0003H19.3333C20.0696 20.0003 20.6666 19.4034 20.6666 18.667V12.0003C20.6666 11.2639 20.0696 10.667 19.3333 10.667Z" stroke="#149F75" stroke-linecap="round" stroke-linejoin="round"/>
<path d="M16.6666 20V9.33333C16.6666 8.97971 16.5261 8.64057 16.2761 8.39052C16.026 8.14048 15.6869 8 15.3333 8H12.6666C12.313 8 11.9738 8.14048 11.7238 8.39052C11.4737 8.64057 11.3333 8.97971 11.3333 9.33333V20" stroke="#149F75" stroke-linecap="round" stroke-linejoin="round"/>
</svg>
