<svg width="28" height="28" viewBox="0 0 28 28" fill="none" xmlns="http://www.w3.org/2000/svg">
<path d="M17.7333 9.59961L16 11.3329L17.7253 13.0583" stroke="#149F75" stroke-miterlimit="10"/>
<path d="M11.5986 9.59863L13.3333 11.3333L11.5973 13.0693" stroke="#149F75" stroke-miterlimit="10"/>
<path d="M14 6C9.582 6 6 9.582 6 14C6 15.1547 6.25 16.2493 6.69 17.2407L8.33333 19.6667L10.7593 21.31C11.7507 21.7507 12.8453 22 14 22C18.418 22 22 18.418 22 14C22 9.582 18.418 6 14 6Z" stroke="#149F75" stroke-miterlimit="10"/>
<path d="M11.3334 15.9997C11.3334 17.4723 12.826 18.6663 14.6667 18.6663C16.5074 18.6663 18 17.4723 18 15.9997V15.333H11.3334V15.9997Z" stroke="#149F75" stroke-miterlimit="10"/>
</svg>
