<svg width="28" height="28" viewBox="0 0 28 28" fill="none" xmlns="http://www.w3.org/2000/svg">
<path d="M17.4666 12.7373V9.52046C17.4666 9.34366 17.61 9.2002 17.7868 9.2002H20.8794C21.0564 9.2002 21.1999 9.34366 21.1999 9.52046V20.6669" stroke="#149F75" stroke-miterlimit="10"/>
<path d="M13.4666 20.6661V13.67C13.4666 13.5705 13.5308 13.4834 13.6234 13.4567L17.6655 12.4215C17.7103 12.4069 17.757 12.3994 17.8039 12.3994C18.0594 12.3997 18.2666 12.6138 18.2666 12.8778V20.6661" stroke="#149F75" stroke-miterlimit="10"/>
<path d="M14.2666 14.7998H16.6666" stroke="#149F75" stroke-miterlimit="10"/>
<path d="M14.5334 16.1328H15.0668" stroke="#149F75" stroke-miterlimit="10"/>
<path d="M15.6001 16.1328H17.4668" stroke="#149F75" stroke-miterlimit="10"/>
<path d="M6.80005 20.6662V12.1427C6.80005 11.9899 6.92378 11.8662 7.07658 11.8662H11.8568C12.0096 11.8662 12.1334 11.9899 12.1334 12.1427V20.6662" stroke="#149F75" stroke-miterlimit="10"/>
<path d="M7.33325 11.8667V10.0193C7.33325 9.8614 7.46125 9.7334 7.61912 9.7334H11.3141C11.4719 9.7334 11.5999 9.8614 11.5999 10.0193V11.8667" stroke="#149F75" stroke-miterlimit="10"/>
<path d="M8.1333 9.73281V8.41415C8.1333 8.25868 8.25917 8.13281 8.41463 8.13281H10.5186C10.6741 8.13281 10.8 8.25868 10.8 8.41415V9.73281" stroke="#149F75" stroke-miterlimit="10"/>
<path d="M9.46655 6.5332V8.1332" stroke="#149F75" stroke-miterlimit="10"/>
<path d="M10.8 15.5996V16.9329" stroke="#149F75" stroke-miterlimit="10"/>
<path d="M8.1333 15.5996V16.9329" stroke="#149F75" stroke-miterlimit="10"/>
<path d="M10.8 13.2002V14.5335" stroke="#149F75" stroke-miterlimit="10"/>
<path d="M8.1333 13.2002V14.5335" stroke="#149F75" stroke-miterlimit="10"/>
<path d="M6 20.667H22" stroke="#149F75" stroke-miterlimit="10"/>
</svg>
