<svg width="28" height="28" viewBox="0 0 28 28" fill="none" xmlns="http://www.w3.org/2000/svg">
<path d="M13.9999 20.6673C17.6818 20.6673 20.6666 17.6826 20.6666 14.0007C20.6666 10.3188 17.6818 7.33398 13.9999 7.33398C10.318 7.33398 7.33325 10.3188 7.33325 14.0007C7.33325 17.6826 10.318 20.6673 13.9999 20.6673Z" stroke="#149F75" stroke-miterlimit="10"/>
<path d="M19.3874 10.0713L8.61243 17.9296" stroke="#149F75" stroke-miterlimit="10"/>
<path d="M7.57495 12.2124C8.96245 11.6708 10.8833 11.3333 13 11.3333C13.9424 11.3334 14.8546 11.0007 15.5758 10.3939C16.2969 9.78713 16.7806 8.9452 16.9416 8.0166" stroke="#149F75" stroke-miterlimit="10"/>
<path d="M20.6 13.0462C19.6605 12.9055 18.7016 13.103 17.8942 13.6037C17.0868 14.1043 16.4834 14.8754 16.1917 15.7795C15.5459 17.792 14.6459 19.5045 13.7084 20.6587" stroke="#149F75" stroke-miterlimit="10"/>
<path d="M18.9916 18.4167C18.9958 18.2792 19 18.1333 19 18C19 13.2167 15.85 9.16667 11.5083 7.8125" stroke="#149F75" stroke-miterlimit="10"/>
</svg>
