<svg width="28" height="28" viewBox="0 0 28 28" fill="none" xmlns="http://www.w3.org/2000/svg">
<path d="M7.41895 21.1998L8.25868 19.1171C8.34455 18.9243 8.53628 18.7998 8.74748 18.7998H12.3192C12.5304 18.7998 12.7221 18.9243 12.808 19.1171L13.6309 21.1998" stroke="#149F75" stroke-miterlimit="10"/>
<path d="M12.1333 13.0938V18.7991" stroke="#149F75" stroke-miterlimit="10"/>
<path d="M8.93335 18.7991V13.0938" stroke="#149F75" stroke-miterlimit="10"/>
<path d="M10.5333 13.9999C11.5642 13.9999 12.4 13.1642 12.4 12.1333C12.4 11.1023 11.5642 10.2666 10.5333 10.2666C9.50236 10.2666 8.66663 11.1023 8.66663 12.1333C8.66663 13.1642 9.50236 13.9999 10.5333 13.9999Z" stroke="#149F75" stroke-miterlimit="10"/>
<path d="M15.3333 10.5329C16.0697 10.5329 16.6667 9.93592 16.6667 9.19954C16.6667 8.46316 16.0697 7.86621 15.3333 7.86621C14.597 7.86621 14 8.46316 14 9.19954C14 9.93592 14.597 10.5329 15.3333 10.5329Z" stroke="#149F75" stroke-miterlimit="10"/>
<path d="M18.2667 13.9997C19.0031 13.9997 19.6 13.4027 19.6 12.6663C19.6 11.93 19.0031 11.333 18.2667 11.333C17.5303 11.333 16.9333 11.93 16.9333 12.6663C16.9333 13.4027 17.5303 13.9997 18.2667 13.9997Z" stroke="#149F75" stroke-miterlimit="10"/>
<path d="M18.1891 11.3365L16.6328 9.49707" stroke="#149F75" stroke-miterlimit="10"/>
<path d="M16.9672 12.3685L15.4109 10.5293" stroke="#149F75" stroke-miterlimit="10"/>
<path d="M14.0056 9.07324L11.5549 10.5714" stroke="#149F75" stroke-miterlimit="10"/>
<path d="M14.8406 10.4385L12.3896 11.9361" stroke="#149F75" stroke-miterlimit="10"/>
<path d="M19.5208 13.1182L20.8243 15.1019C20.8928 15.2067 20.9333 15.3315 20.9333 15.4662C20.9333 15.5952 20.8949 15.715 20.8312 15.8171L19.7837 17.4824C19.6896 17.6326 19.5235 17.7328 19.3333 17.7328C19.0389 17.7328 18.8 17.4939 18.8 17.1995C18.8 17.1211 18.8179 17.047 18.8485 16.9798L19.4936 15.5568L18.2875 13.9995" stroke="#149F75" stroke-miterlimit="10"/>
<path d="M17.0125 13.1182L15.709 15.1019C15.6405 15.2067 15.6 15.3315 15.6 15.4662C15.6 15.5952 15.6386 15.715 15.7021 15.8171L16.7496 17.4824C16.8437 17.6326 17.0098 17.7328 17.2 17.7328C17.4944 17.7328 17.7333 17.4939 17.7333 17.1995C17.7333 17.1211 17.7154 17.047 17.6848 16.9798L17.0394 15.5568L18.2456 13.9992" stroke="#149F75" stroke-miterlimit="10"/>
<path d="M6.53333 21.1992H19.8667" stroke="#149F75" stroke-miterlimit="10"/>
<path d="M20.4 21.1992H20.9334" stroke="#149F75" stroke-miterlimit="10"/>
</svg>
