<svg width="28" height="28" viewBox="0 0 28 28" fill="none" xmlns="http://www.w3.org/2000/svg">
<path d="M13.4667 15.0664H12.9333V15.5997H13.4667V15.0664Z" fill="#149F75"/>
<path d="M14.2667 14.2666H13.7334V14.7999H14.2667V14.2666Z" fill="#149F75"/>
<path d="M12.6666 15.8662H12.1333V16.3995H12.6666V15.8662Z" fill="#149F75"/>
<path d="M12.3999 9.06621L14.7495 9.93181C14.8727 9.97661 15.0028 9.99954 15.1338 9.99954C15.3836 9.99954 15.6263 9.91634 15.8236 9.76328L17.8903 8.15848C18.134 7.96914 18.434 7.86621 18.7428 7.86621C19.5108 7.86621 20.1332 8.48861 20.1332 9.25661C20.1332 9.56541 20.0303 9.86541 19.841 10.1094L18.2362 12.1761C18.0831 12.3731 17.9999 12.6158 17.9999 12.8657C17.9999 12.9966 18.0228 13.1267 18.0676 13.2499L19.4914 17.1673C19.5631 17.3649 19.5999 17.5739 19.5999 17.7843C19.5999 18.2635 19.4095 18.7233 19.0706 19.0622L18.3775 19.7553C18.3066 19.8262 18.2103 19.8659 18.1098 19.8662C17.9636 19.8667 17.83 19.7843 17.766 19.6529L17.3138 18.7243L16.3999 16.7995" stroke="#149F75" stroke-miterlimit="10"/>
<path d="M18.2667 10.2666H17.7334V10.7999H18.2667V10.2666Z" fill="#149F75"/>
<path d="M19.0665 9.4668H18.5332V10.0001H19.0665V9.4668Z" fill="#149F75"/>
<path d="M17.4667 11.0664H16.9333V11.5997H17.4667V11.0664Z" fill="#149F75"/>
<path d="M16.5393 17.1351L15.5844 15.1745C15.5502 15.1044 15.4812 15.0668 15.4113 15.0671C15.3636 15.0673 15.3153 15.0855 15.2774 15.1231L12.5564 17.8441C12.4564 17.9441 12.4001 18.0799 12.4001 18.2212V20.4895C12.4001 20.5927 12.37 20.694 12.3137 20.7804L12.0436 21.1953C11.9334 21.3649 11.7449 21.4671 11.5425 21.4671C11.2641 21.4671 11.0225 21.2748 10.9598 21.0036L10.2918 18.1087C10.246 17.91 10.0908 17.7548 9.89211 17.7089L6.99691 17.0407C6.72571 16.978 6.53345 16.7364 6.53345 16.458C6.53345 16.2559 6.63558 16.0671 6.80518 15.9569L7.22011 15.6868C7.30651 15.6303 7.40785 15.6004 7.51105 15.6004H9.77931C9.92065 15.6004 10.0564 15.5441 10.1564 15.4441L12.8774 12.7231C12.915 12.6855 12.9332 12.6372 12.9334 12.5892C12.9337 12.5193 12.8961 12.4503 12.826 12.4161L8.34678 10.2343C8.21531 10.1703 8.13291 10.0367 8.13345 9.89052C8.13371 9.78999 8.17318 9.69399 8.24438 9.62279L8.93745 8.92972C9.27638 8.59079 9.73611 8.40039 10.2153 8.40039C10.4257 8.40039 10.6348 8.43719 10.8326 8.50919L12.6046 9.15319" stroke="#149F75" stroke-miterlimit="10"/>
</svg>
