<svg width="80" height="224" viewBox="0 0 80 224" fill="none" xmlns="http://www.w3.org/2000/svg">
<path d="M81.3436 107.628C79.7103 104.277 78.0149 101.633 76.0493 99.3217C74.0837 97.0106 71.2237 93.9082 68.5314 94.3845C67.3048 94.6332 66.9104 96.3806 67.7737 97.5257C69.2921 99.4411 71.6521 100.005 73.4718 101.234C76.2168 102.901 78.6296 105.607 80.7722 108.647C80.9492 109.375 81.7597 108.377 81.3436 107.628Z" fill="url(#paint0_linear_574_21269)"/>
<path d="M59.6813 85.4093C58.048 82.0582 56.1134 79.3934 53.6696 77.0403C51.2258 74.6872 48.0953 71.9174 45.1639 72.3728C44.1764 72.6425 43.99 74.7646 44.6763 75.1812C46.6423 77.4924 49.5116 77.7444 51.7784 79.3691C54.284 81.0148 56.6971 83.7216 58.8397 86.761C59.2558 87.5104 60.3054 86.5333 59.6813 85.4093Z" fill="url(#paint1_linear_574_21269)"/>
<path d="M23.1289 81.8434C24.3024 79.4516 25.2061 77.3925 26.7961 75.7501C28.8643 74.1497 31.7957 73.6943 33.9477 73.8833C34.6654 73.9463 34.8207 72.1779 34.103 72.1149C29.622 71.0085 21.6076 71.7303 21.0387 80.947C21.1536 82.3827 22.5261 83.2161 23.1289 81.8434Z" fill="url(#paint2_linear_574_21269)"/>
<path d="M11.4674 118.598C12.0481 114.729 11.912 110.796 12.2537 106.906C12.9273 101.975 14.2879 97.4609 16.5425 93.7384C16.8433 93.052 16.1571 92.6353 15.8873 92.968C11.4093 100.059 7.16087 110.023 8.98344 119.449C9.5455 121.28 11.3121 120.366 11.4674 118.598Z" fill="url(#paint3_linear_574_21269)"/>
<path d="M25.0864 150.089C24.3474 147.529 23.0991 145.281 22.1521 142.347C21.4131 139.787 21.1834 136.915 21.1927 134.065C21.109 132.275 19.4352 132.128 19.2799 133.897C18.4816 140.242 19.2018 148.503 22.9561 152.397C24.0273 153.917 25.4097 151.9 25.0864 150.089Z" fill="url(#paint4_linear_574_21269)"/>
<path d="M38.1596 165.85C35.455 160.979 32.5423 155.734 28.9962 152.214C27.8935 151.048 26.9591 153.461 27.8223 154.606C30.8282 158.79 32.6601 165.367 36.4764 168.554C37.6406 169.012 38.9914 167.348 38.1596 165.85Z" fill="url(#paint5_linear_574_21269)"/>
<path d="M35.5905 192.356C37.1183 191.421 38.3233 188.675 39.227 186.616C40.1617 184.203 40.6489 181.395 40.8974 178.566C41.0527 176.797 39.3794 176.65 39.2241 178.419C39.0066 180.894 38.3416 182.974 37.4379 185.034C36.5653 186.739 35.2455 188.049 34.3733 189.754C33.5321 191.106 34.572 192.979 35.5905 192.356Z" fill="url(#paint6_linear_574_21269)"/>
<path d="M24.4014 212.757C30.3358 208.288 36.8322 205.651 42.9435 201.911C45.7601 200.02 43.866 194.151 41.0805 195.688C36.0192 198.451 30.749 200.84 25.8332 204.685C25.8737 201.481 25.9141 198.277 25.9856 194.719C25.8708 193.283 26.0882 190.807 25.2246 189.662L25.0169 189.288C25.0169 189.288 25.0479 188.935 24.8088 188.914C24.3927 188.164 23.3742 188.788 23.312 189.495C23.0419 189.828 23.0108 190.182 22.9487 190.889C22.5546 192.637 22.6381 194.426 22.4517 196.548C22.287 201.167 22.1537 205.432 21.5104 210.009C21.085 212.109 22.8736 213.692 24.4014 212.757Z" fill="url(#paint7_linear_574_21269)"/>
<defs>
<linearGradient id="paint0_linear_574_21269" x1="81.9805" y1="102.221" x2="66.883" y2="100.895" gradientUnits="userSpaceOnUse">
<stop stop-color="#149F75"/>
<stop offset="1" stop-color="#33E5B0"/>
</linearGradient>
<linearGradient id="paint1_linear_574_21269" x1="60.385" y1="80.3565" x2="43.8342" y2="78.9029" gradientUnits="userSpaceOnUse">
<stop stop-color="#149F75"/>
<stop offset="1" stop-color="#33E5B0"/>
</linearGradient>
<linearGradient id="paint2_linear_574_21269" x1="34.1483" y1="77.7746" x2="21.4102" y2="76.6558" gradientUnits="userSpaceOnUse">
<stop stop-color="#149F75"/>
<stop offset="1" stop-color="#33E5B0"/>
</linearGradient>
<linearGradient id="paint3_linear_574_21269" x1="15.4384" y1="106.86" x2="9.19225" y2="106.312" gradientUnits="userSpaceOnUse">
<stop stop-color="#149F75"/>
<stop offset="1" stop-color="#33E5B0"/>
</linearGradient>
<linearGradient id="paint4_linear_574_21269" x1="25.8071" y1="143.123" x2="18.5004" y2="142.482" gradientUnits="userSpaceOnUse">
<stop stop-color="#149F75"/>
<stop offset="1" stop-color="#33E5B0"/>
</linearGradient>
<linearGradient id="paint5_linear_574_21269" x1="38.9512" y1="160.822" x2="26.9225" y2="159.766" gradientUnits="userSpaceOnUse">
<stop stop-color="#149F75"/>
<stop offset="1" stop-color="#33E5B0"/>
</linearGradient>
<linearGradient id="paint6_linear_574_21269" x1="40.3274" y1="185.056" x2="34.6096" y2="184.554" gradientUnits="userSpaceOnUse">
<stop stop-color="#149F75"/>
<stop offset="1" stop-color="#33E5B0"/>
</linearGradient>
<linearGradient id="paint7_linear_574_21269" x1="44.035" y1="202.576" x2="21.9854" y2="200.639" gradientUnits="userSpaceOnUse">
<stop stop-color="#149F75"/>
<stop offset="1" stop-color="#33E5B0"/>
</linearGradient>
</defs>
</svg>
