<svg width="30" height="30" viewBox="0 0 30 30" fill="none" xmlns="http://www.w3.org/2000/svg">
<circle cx="14.8571" cy="15.0269" r="14.2857" stroke="#149F75" stroke-width="0.5"/>
<g clip-path="url(#clip0_375_7105)">
<path d="M17.834 9.07422H11.8816C10.2379 9.07422 8.9054 10.4067 8.9054 12.0504V18.0028C8.9054 19.6465 10.2379 20.979 11.8816 20.979H17.834C19.4777 20.979 20.8102 19.6465 20.8102 18.0028V12.0504C20.8102 10.4067 19.4777 9.07422 17.834 9.07422Z" fill="#149F75" stroke="white" stroke-linecap="round" stroke-linejoin="round"/>
<path d="M17.2373 14.6518C17.3107 15.1472 17.2261 15.6531 16.9954 16.0977C16.7648 16.5422 16.3998 16.9027 15.9525 17.1278C15.5052 17.353 14.9982 17.4313 14.5038 17.3518C14.0094 17.2722 13.5526 17.0388 13.1985 16.6847C12.8443 16.3305 12.6109 15.8738 12.5313 15.3793C12.4518 14.8849 12.5301 14.378 12.7553 13.9306C12.9805 13.4833 13.3409 13.1183 13.7855 12.8877C14.23 12.657 14.7359 12.5724 15.2313 12.6459C15.7366 12.7208 16.2044 12.9563 16.5656 13.3175C16.9269 13.6787 17.1623 14.1465 17.2373 14.6518Z" fill="#149F75" stroke="white" stroke-linecap="round" stroke-linejoin="round"/>
<path d="M18.13 11.7529H18.136" stroke="white" stroke-linecap="round" stroke-linejoin="round"/>
</g>
<defs>
<clipPath id="clip0_375_7105">
<rect width="14.2857" height="14.2857" fill="white" transform="translate(7.71399 7.88379)"/>
</clipPath>
</defs>
</svg>
