<svg width="24" height="24" viewBox="0 0 24 24" fill="none" xmlns="http://www.w3.org/2000/svg">
<path fill-rule="evenodd" clip-rule="evenodd" d="M8.7733 11.5987C8.7913 11.6147 8.8083 11.6297 8.8253 11.6477C9.9043 12.7537 10.4993 14.2187 10.4993 15.7737V19.7577L12.7353 18.5397C12.9113 18.4437 13.0203 18.2557 13.0203 18.0487V15.7617C13.0203 14.2127 13.6093 12.7527 14.6783 11.6527L19.5153 6.50771C19.8283 6.17471 20.0003 5.73771 20.0003 5.27671V4.34071C20.0003 3.87671 19.6343 3.49971 19.1863 3.49971H4.3153C3.8663 3.49971 3.50031 3.87671 3.50031 4.34071V5.27671C3.50031 5.73771 3.67231 6.17471 3.98531 6.50671L8.7733 11.5987ZM10.1463 21.5007C9.94431 21.5007 9.7443 21.4467 9.5623 21.3387C9.2103 21.1287 8.99931 20.7577 8.99931 20.3457V15.7737C8.99931 14.6387 8.57631 13.5697 7.80531 12.7507C7.78231 12.7317 7.75931 12.7107 7.73931 12.6887L2.89331 7.53571C2.31731 6.92371 2.00031 6.12071 2.00031 5.27671V4.34071C2.00031 3.04971 3.0393 1.99971 4.3153 1.99971H19.1863C20.4613 1.99971 21.5003 3.04971 21.5003 4.34071V5.27671C21.5003 6.11971 21.1833 6.92171 20.6093 7.53471L15.7623 12.6887C14.9593 13.5167 14.5203 14.6057 14.5203 15.7617V18.0487C14.5203 18.8047 14.1113 19.4967 13.4533 19.8567L10.6923 21.3607C10.5203 21.4537 10.3333 21.5007 10.1463 21.5007Z" fill="black"/>
</svg>
