<svg width="18" height="18" viewBox="0 0 18 18" fill="none" xmlns="http://www.w3.org/2000/svg">
<path fill-rule="evenodd" clip-rule="evenodd" d="M4.227 4.22697C4.36362 4.08551 4.43921 3.89606 4.43751 3.69942C4.4358 3.50277 4.35692 3.31466 4.21786 3.1756C4.07881 3.03655 3.8907 2.95767 3.69405 2.95596C3.4974 2.95425 3.30795 3.02985 3.1665 3.16647C-0.0554999 6.38847 -0.0554999 11.6115 3.1665 14.8335C3.30795 14.9701 3.4974 15.0457 3.69405 15.044C3.8907 15.0423 4.07881 14.9634 4.21786 14.8243C4.35692 14.6853 4.4358 14.4972 4.43751 14.3005C4.43921 14.1039 4.36362 13.9144 4.227 13.773C3.6002 13.1462 3.10299 12.4021 2.76376 11.5831C2.42454 10.7641 2.24994 9.88639 2.24994 8.99997C2.24994 8.11354 2.42454 7.23579 2.76376 6.41683C3.10299 5.59788 3.6002 4.85376 4.227 4.22697ZM14.8335 3.16647C14.7643 3.09483 14.6816 3.0377 14.5901 2.99839C14.4986 2.95908 14.4001 2.93839 14.3006 2.93753C14.201 2.93666 14.1022 2.95564 14.01 2.99335C13.9179 3.03106 13.8341 3.08675 13.7637 3.15717C13.6933 3.22759 13.6376 3.31133 13.5999 3.4035C13.5622 3.49567 13.5432 3.59443 13.5441 3.69402C13.5449 3.7936 13.5656 3.89202 13.6049 3.98352C13.6442 4.07502 13.7014 4.15778 13.773 4.22697C14.3998 4.85376 14.897 5.59788 15.2362 6.41683C15.5755 7.23579 15.7501 8.11354 15.7501 8.99997C15.7501 9.88639 15.5755 10.7641 15.2362 11.5831C14.897 12.4021 14.3998 13.1462 13.773 13.773C13.7014 13.8422 13.6442 13.9249 13.6049 14.0164C13.5656 14.1079 13.5449 14.2063 13.5441 14.3059C13.5432 14.4055 13.5622 14.5043 13.5999 14.5964C13.6376 14.6886 13.6933 14.7723 13.7637 14.8428C13.8341 14.9132 13.9179 14.9689 14.01 15.0066C14.1022 15.0443 14.201 15.0633 14.3006 15.0624C14.4001 15.0615 14.4986 15.0408 14.5901 15.0015C14.6816 14.9622 14.7643 14.9051 14.8335 14.8335C18.0555 11.6115 18.0555 6.38847 14.8335 3.16647ZM6.348 6.34797C6.48462 6.20651 6.56021 6.01706 6.55851 5.82042C6.5568 5.62377 6.47792 5.43566 6.33886 5.2966C6.19981 5.15755 6.0117 5.07867 5.81505 5.07696C5.6184 5.07525 5.42895 5.15085 5.2875 5.28747C4.79994 5.77498 4.41318 6.35376 4.1493 6.99075C3.88543 7.62775 3.74962 8.31048 3.74962 8.99997C3.74962 9.68945 3.88543 10.3722 4.1493 11.0092C4.41318 11.6462 4.79994 12.225 5.2875 12.7125C5.35669 12.7841 5.43944 12.8412 5.53095 12.8805C5.62245 12.9198 5.72086 12.9405 5.82045 12.9414C5.92003 12.9423 6.01879 12.9233 6.11097 12.8856C6.20314 12.8479 6.28688 12.7922 6.3573 12.7218C6.42772 12.6513 6.48341 12.5676 6.52112 12.4754C6.55883 12.3833 6.5778 12.2845 6.57694 12.1849C6.57607 12.0853 6.55538 11.9869 6.51608 11.8954C6.47677 11.8039 6.41963 11.7212 6.348 11.652C5.99968 11.3037 5.72336 10.8903 5.53485 10.4353C5.34633 9.98022 5.2493 9.49251 5.2493 8.99997C5.2493 8.50743 5.34633 8.01971 5.53485 7.56467C5.72336 7.10964 5.99968 6.6962 6.348 6.34797ZM12.7125 5.28747C12.6433 5.21583 12.5606 5.1587 12.4691 5.11939C12.3776 5.08008 12.2791 5.05939 12.1796 5.05853C12.08 5.05766 11.9812 5.07664 11.889 5.11435C11.7969 5.15206 11.7131 5.20775 11.6427 5.27817C11.5723 5.34859 11.5166 5.43233 11.4789 5.5245C11.4412 5.61667 11.4222 5.71543 11.4231 5.81502C11.4239 5.9146 11.4446 6.01302 11.4839 6.10452C11.5232 6.19602 11.5804 6.27878 11.652 6.34797C12.0003 6.6962 12.2766 7.10964 12.4652 7.56467C12.6537 8.01971 12.7507 8.50743 12.7507 8.99997C12.7507 9.49251 12.6537 9.98022 12.4652 10.4353C12.2766 10.8903 12.0003 11.3037 11.652 11.652C11.5154 11.7934 11.4398 11.9829 11.4415 12.1795C11.4432 12.3762 11.5221 12.5643 11.6611 12.7033C11.8002 12.8424 11.9883 12.9213 12.1849 12.923C12.3816 12.9247 12.571 12.8491 12.7125 12.7125C13.2001 12.225 13.5868 11.6462 13.8507 11.0092C14.1146 10.3722 14.2504 9.68945 14.2504 8.99997C14.2504 8.31048 14.1146 7.62775 13.8507 6.99075C13.5868 6.35376 13.2001 5.77498 12.7125 5.28747ZM6.75 8.99997C6.75 8.40323 6.98705 7.83093 7.40901 7.40898C7.83097 6.98702 8.40326 6.74997 9 6.74997C9.59674 6.74997 10.169 6.98702 10.591 7.40898C11.0129 7.83093 11.25 8.40323 11.25 8.99997C11.25 9.5967 11.0129 10.169 10.591 10.591C10.169 11.0129 9.59674 11.25 9 11.25C8.40326 11.25 7.83097 11.0129 7.40901 10.591C6.98705 10.169 6.75 9.5967 6.75 8.99997Z" fill="white"/>
</svg>
