<svg width="18" height="18" viewBox="0 0 18 18" fill="none" xmlns="http://www.w3.org/2000/svg">
<path d="M9 16.5C13.1423 16.5 16.5 13.1422 16.5 9C16.5 4.85775 13.1423 1.5 9 1.5C4.85775 1.5 1.5 4.85775 1.5 9C1.49832 10.4835 1.93796 11.934 2.763 13.167C2.8545 13.3031 2.68313 14.1645 2.25 15.75C3.83588 15.3169 4.69688 15.1455 4.833 15.237C6.06596 16.062 7.51647 16.5017 9 16.5V16.5Z" fill="white"/>
<path d="M5.47656 10.4996H11.7691M6.22656 7.43212H12.5191H6.22656ZM8.19231 5.90137L7.09994 12.0979L8.19231 5.90137ZM10.8173 5.90137L9.72494 12.0979L10.8173 5.90137Z" stroke="#149F75" stroke-linecap="round" stroke-linejoin="round"/>
</svg>
