<svg width="17" height="17" viewBox="0 0 17 17" fill="none" xmlns="http://www.w3.org/2000/svg">
<g clip-path="url(#clip0_830_20597)">
<path d="M6.66236 14.7038L4.9506 15.0676C4.64794 15.1319 4.33212 15.0734 4.07262 14.9049C3.81312 14.7364 3.63119 14.4716 3.56686 14.169L2.71789 10.1749C2.65356 9.87223 2.71209 9.55641 2.88061 9.29691C3.04913 9.03741 3.31384 8.85548 3.6165 8.79115L5.32826 8.4273M9.07979 6.43716L8.59467 4.15481C8.49817 3.70083 8.22528 3.30377 7.83603 3.05099C7.44678 2.7982 6.97305 2.7104 6.51906 2.8069L5.32826 8.4273L6.66236 14.7038L13.0986 13.3357C13.3744 13.2803 13.621 13.1271 13.7928 12.9043C13.9646 12.6814 14.0501 12.404 14.0336 12.1231L13.7294 6.82049C13.7195 6.65166 13.673 6.487 13.5931 6.33794C13.5132 6.18888 13.4018 6.05896 13.2668 5.9572C13.1317 5.85544 12.9761 5.78427 12.8108 5.74861C12.6454 5.71296 12.4743 5.71367 12.3093 5.7507L9.07979 6.43716Z" stroke="black" stroke-width="0.8" stroke-linecap="round" stroke-linejoin="round"/>
</g>
<defs>
<clipPath id="clip0_830_20597">
<rect width="14" height="14" fill="white" transform="translate(0 3) rotate(-12)"/>
</clipPath>
</defs>
</svg>
