<svg width="17" height="17" viewBox="0 0 17 17" fill="none" xmlns="http://www.w3.org/2000/svg">
<path d="M2.92188 6.90625C3.16605 6.90625 3.40784 6.95434 3.63343 7.04779C3.85902 7.14123 4.06399 7.27819 4.23665 7.45085C4.40931 7.62351 4.54627 7.82848 4.63971 8.05407C4.73316 8.27966 4.78125 8.52145 4.78125 8.76562C4.78125 9.0098 4.73316 9.25159 4.63971 9.47718C4.54627 9.70277 4.40931 9.90774 4.23665 10.0804C4.06399 10.2531 3.85902 10.39 3.63343 10.4835C3.40784 10.5769 3.16605 10.625 2.92188 10.625C2.42874 10.625 1.9558 10.4291 1.6071 10.0804C1.2584 9.7317 1.0625 9.25876 1.0625 8.76562C1.0625 8.27249 1.2584 7.79955 1.6071 7.45085C1.9558 7.10215 2.42874 6.90625 2.92188 6.90625V6.90625ZM8.5 6.90625C8.74418 6.90625 8.98596 6.95434 9.21155 7.04779C9.43714 7.14123 9.64212 7.27819 9.81478 7.45085C9.98744 7.62351 10.1244 7.82848 10.2178 8.05407C10.3113 8.27966 10.3594 8.52145 10.3594 8.76562C10.3594 9.0098 10.3113 9.25159 10.2178 9.47718C10.1244 9.70277 9.98744 9.90774 9.81478 10.0804C9.64212 10.2531 9.43714 10.39 9.21155 10.4835C8.98596 10.5769 8.74418 10.625 8.5 10.625C8.00686 10.625 7.53392 10.4291 7.18522 10.0804C6.83652 9.7317 6.64063 9.25876 6.64062 8.76562C6.64063 8.27249 6.83652 7.79955 7.18522 7.45085C7.53392 7.10215 8.00686 6.90625 8.5 6.90625V6.90625ZM14.0781 6.90625C14.3223 6.90625 14.5641 6.95434 14.7897 7.04779C15.0153 7.14123 15.2202 7.27819 15.3929 7.45085C15.5656 7.62351 15.7025 7.82848 15.796 8.05407C15.8894 8.27966 15.9375 8.52145 15.9375 8.76562C15.9375 9.0098 15.8894 9.25159 15.796 9.47718C15.7025 9.70277 15.5656 9.90774 15.3929 10.0804C15.2202 10.2531 15.0153 10.39 14.7897 10.4835C14.5641 10.5769 14.3223 10.625 14.0781 10.625C13.585 10.625 13.112 10.4291 12.7633 10.0804C12.4146 9.7317 12.2188 9.25876 12.2188 8.76562C12.2188 8.27249 12.4146 7.79955 12.7633 7.45085C13.112 7.10215 13.585 6.90625 14.0781 6.90625V6.90625Z" fill="#999999"/>
</svg>
