<svg width="28" height="28" viewBox="0 0 28 28" fill="none" xmlns="http://www.w3.org/2000/svg">
<g clip-path="url(#clip0_459_6747)">
<path d="M14.7998 22C14.7998 22 14.7998 21.4 14.7998 20.1333C14.7998 18.1496 16.2961 16.1128 17.3939 14.8848" stroke="#149F75" stroke-miterlimit="10"/>
<path d="M14.8 20.1329C14.8 17.6495 12.9667 15.5996 11.0667 15.5996" stroke="#149F75" stroke-miterlimit="10"/>
<path d="M14 15.8659C14 15.8659 13.3 13.1992 10.2667 13.1992C9.10745 13.1992 7.06665 14.116 7.06665 16.1326" stroke="#149F75" stroke-miterlimit="10"/>
<path d="M13.9999 13.4667C13.9999 11.0833 13.27 10.3025 12.5183 9.58008" stroke="#149F75" stroke-miterlimit="10"/>
<path d="M12.6667 11.8663C13.6976 11.8663 14.5333 11.0305 14.5333 9.99961C14.5333 7.63294 11.1445 7.59961 10 7.59961C10 8.94414 10.5112 11.8663 12.6667 11.8663Z" stroke="#149F75" stroke-miterlimit="10"/>
<path d="M7.06665 16.1328C7.06665 17.2429 7.58825 18.2312 8.39998 18.8656C8.39998 17.7064 8.60692 17.0989 9.09198 16.4629" stroke="#149F75" stroke-miterlimit="10"/>
<path d="M7.06665 16.133C7.06665 15.6911 7.42478 15.333 7.86665 15.333C9.52772 15.333 9.09172 19.333 12.4 19.333C13.1227 19.333 13.6904 19.2402 14.6325 18.8458" stroke="#149F75" stroke-miterlimit="10"/>
<path d="M20.4 13.7334C20.4 16.3843 18.9672 18.5334 17.2 18.5334C15.9083 18.5334 15.3334 17.9203 15.3334 17.9203C15.3334 17.9203 14.8 16.8502 14.8 15.3334C14.8 13.8833 15.7966 12.4793 17.3 11.8667C18.8 11.2555 19.2 10.4889 19.4667 9.7334C20.071 10.9262 20.4 12.3049 20.4 13.7334Z" stroke="#149F75" stroke-miterlimit="10"/>
</g>
<defs>
<clipPath id="clip0_459_6747">
<rect width="16" height="16" fill="white" transform="translate(6 6)"/>
</clipPath>
</defs>
</svg>

