<svg width="28" height="28" viewBox="0 0 28 28" fill="none" xmlns="http://www.w3.org/2000/svg">
<path d="M8.5 13L9.68062 10.2453C9.87281 9.79688 10.3625 9.5 10.9097 9.5H17.0903C17.6375 9.5 18.1272 9.79688 18.3194 10.2453L19.5 13" stroke="#149F75" stroke-linecap="round" stroke-linejoin="round"/>
<path d="M19.5 13H8.5V17.5H19.5V13Z" stroke="#149F75" stroke-linecap="round" stroke-linejoin="round"/>
<path d="M9.5 17.5V18.5H8.5V17.5" stroke="#149F75" stroke-linecap="round" stroke-linejoin="round"/>
<path d="M19.5 17.5V18.5H18.5V17.5" stroke="#149F75" stroke-linecap="round" stroke-linejoin="round"/>
<path d="M10.5 15.5C10.7761 15.5 11 15.2761 11 15C11 14.7239 10.7761 14.5 10.5 14.5C10.2239 14.5 10 14.7239 10 15C10 15.2761 10.2239 15.5 10.5 15.5Z" stroke="#149F75" stroke-linecap="round" stroke-linejoin="round"/>
<path d="M17.5 15.5C17.7761 15.5 18 15.2761 18 15C18 14.7239 17.7761 14.5 17.5 14.5C17.2239 14.5 17 14.7239 17 15C17 15.2761 17.2239 15.5 17.5 15.5Z" stroke="#149F75" stroke-linecap="round" stroke-linejoin="round"/>
</svg>
