<svg width="30" height="30" viewBox="0 0 30 30" fill="none" xmlns="http://www.w3.org/2000/svg">
<rect width="30" height="30" rx="8" fill="white"/>
<path d="M19 12.3334C19 11.2725 18.5786 10.2551 17.8284 9.50495C17.0783 8.7548 16.0609 8.33337 15 8.33337C13.9391 8.33337 12.9217 8.7548 12.1716 9.50495C11.4214 10.2551 11 11.2725 11 12.3334C11 17 9 18.3334 9 18.3334H21C21 18.3334 19 17 19 12.3334Z" stroke="#149F75" stroke-width="1.2" stroke-linecap="round" stroke-linejoin="round"/>
<path d="M16.1533 21C16.0361 21.2021 15.8679 21.3698 15.6655 21.4864C15.4631 21.6029 15.2336 21.6643 15 21.6643C14.7664 21.6643 14.5369 21.6029 14.3345 21.4864C14.1321 21.3698 13.9639 21.2021 13.8467 21" stroke="#149F75" stroke-width="1.2" stroke-linecap="round" stroke-linejoin="round"/>
</svg>
