<svg width="22" height="22" viewBox="0 0 22 22" fill="none" xmlns="http://www.w3.org/2000/svg">
<path d="M18.333 6.41699H3.66634C2.65382 6.41699 1.83301 7.2378 1.83301 8.25033V17.417C1.83301 18.4295 2.65382 19.2503 3.66634 19.2503H18.333C19.3455 19.2503 20.1663 18.4295 20.1663 17.417V8.25033C20.1663 7.2378 19.3455 6.41699 18.333 6.41699Z" stroke="black" stroke-linecap="round" stroke-linejoin="round"/>
<path d="M14.6663 19.25V4.58333C14.6663 4.0971 14.4732 3.63079 14.1294 3.28697C13.7856 2.94315 13.3192 2.75 12.833 2.75H9.16634C8.68011 2.75 8.2138 2.94315 7.86998 3.28697C7.52616 3.63079 7.33301 4.0971 7.33301 4.58333V19.25" stroke="black" stroke-linecap="round" stroke-linejoin="round"/>
</svg>
