<svg width="18" height="18" viewBox="0 0 18 18" fill="none" xmlns="http://www.w3.org/2000/svg">
<path d="M3.375 3.375C3.375 2.77826 3.61205 2.20597 4.03401 1.78401C4.45597 1.36205 5.02826 1.125 5.625 1.125C6.22174 1.125 6.79403 1.36205 7.21599 1.78401C7.63795 2.20597 7.875 2.77826 7.875 3.375C7.875 3.97174 7.63795 4.54403 7.21599 4.96599C6.79403 5.38795 6.22174 5.625 5.625 5.625C5.02826 5.625 4.45597 5.38795 4.03401 4.96599C3.61205 4.54403 3.375 3.97174 3.375 3.375ZM11.0014 5.157L11.0486 5.193C11.526 5.54682 12.1239 5.69747 12.7119 5.61207C13.2999 5.52668 13.8302 5.21217 14.1872 4.73719C14.5441 4.26221 14.6987 3.66531 14.6172 3.07676C14.5357 2.48822 14.2247 1.9558 13.7521 1.59571C13.2795 1.23562 12.6836 1.07709 12.0945 1.15472C11.5055 1.23234 10.971 1.53982 10.6078 2.01005C10.2446 2.48028 10.0821 3.07509 10.1559 3.66466C10.2296 4.25423 10.5336 4.7907 11.0014 5.157ZM7.0515 6.75C7.1928 6.48243 7.38662 6.24612 7.62136 6.05519C7.85611 5.86426 8.12695 5.72264 8.41769 5.6388C8.70842 5.55496 9.01309 5.53063 9.31345 5.56726C9.61381 5.60388 9.90369 5.70072 10.1658 5.85196C10.4278 6.00321 10.6567 6.20577 10.8387 6.44751C11.0207 6.68926 11.152 6.96522 11.2249 7.2589C11.2978 7.55259 11.3106 7.85795 11.2628 8.15672C11.2149 8.45549 11.1072 8.74154 10.9462 8.99775C10.6366 9.49064 10.1479 9.84433 9.58291 9.9845C9.01793 10.1247 8.4206 10.0404 7.91643 9.74946C7.41226 9.45849 7.04048 8.98345 6.87919 8.42413C6.7179 7.8648 6.77966 7.26474 7.0515 6.75ZM2.8125 6.75H5.81625C5.6925 7.10213 5.625 7.48125 5.625 7.875C5.625 8.739 5.95012 9.52875 6.4845 10.125H6.1875C5.60749 10.1249 5.04163 10.3041 4.56737 10.638C4.09311 10.9719 3.73363 11.4442 3.53813 11.9902C3.1605 11.8386 2.80693 11.6328 2.4885 11.3794C1.6425 10.6987 1.125 9.693 1.125 8.4375C1.125 7.98995 1.30279 7.56072 1.61926 7.24426C1.93572 6.92779 2.36495 6.75 2.8125 6.75ZM11.8125 10.125C13.0331 10.125 14.0726 10.9024 14.4608 11.9902C14.8433 11.8339 15.1976 11.6302 15.5115 11.3794C16.3575 10.6987 16.875 9.693 16.875 8.4375C16.875 7.98995 16.6972 7.56072 16.3807 7.24426C16.0643 6.92779 15.6351 6.75 15.1875 6.75H12.1838C12.3075 7.10213 12.375 7.48125 12.375 7.875C12.376 8.70538 12.0699 9.5068 11.5155 10.125H11.8125ZM13.3729 12.294C13.455 12.492 13.5 12.7102 13.5 12.9375C13.5 14.193 12.9836 15.1987 12.1365 15.8794C11.3029 16.5487 10.1846 16.875 9 16.875C7.81537 16.875 6.69712 16.5487 5.8635 15.8794C5.0175 15.1987 4.5 14.193 4.5 12.9375C4.49941 12.7157 4.54265 12.496 4.62724 12.291C4.71184 12.086 4.83612 11.8998 4.99293 11.7429C5.14975 11.5861 5.33602 11.4618 5.54102 11.3772C5.74603 11.2926 5.96573 11.2494 6.1875 11.25H11.8125C12.1467 11.2499 12.4735 11.3491 12.7513 11.535C13.0291 11.7208 13.2454 11.985 13.3729 12.294Z" fill="white"/>
</svg>
