<svg width="28" height="28" viewBox="0 0 28 28" fill="none" xmlns="http://www.w3.org/2000/svg">
<path d="M11.8 7.13379L14 9.33379L16.2 7.13379" stroke="#149F75" stroke-miterlimit="10"/>
<path d="M14 6.66699V12.3337" stroke="#149F75" stroke-miterlimit="10"/>
<path d="M15.4417 13.1673L20.5667 10.209" stroke="#149F75" stroke-miterlimit="10"/>
<path d="M14.0002 15.6673C14.9206 15.6673 15.6668 14.9211 15.6668 14.0007C15.6668 13.0802 14.9206 12.334 14.0002 12.334C13.0797 12.334 12.3335 13.0802 12.3335 14.0007C12.3335 14.9211 13.0797 15.6673 14.0002 15.6673Z" stroke="#149F75" stroke-miterlimit="10"/>
<path d="M18.8165 8.77148L18.0415 11.6673L20.9373 12.4423" stroke="#149F75" stroke-miterlimit="10"/>
<path d="M12.5583 13.1673L7.43335 10.209" stroke="#149F75" stroke-miterlimit="10"/>
<path d="M7.0625 12.4423L9.95833 11.6673L9.18333 8.77148" stroke="#149F75" stroke-miterlimit="10"/>
<path d="M11.8 20.867L14 18.667L16.2 20.867" stroke="#149F75" stroke-miterlimit="10"/>
<path d="M14 21.3337V15.667" stroke="#149F75" stroke-miterlimit="10"/>
<path d="M15.4417 14.834L20.5667 17.7923" stroke="#149F75" stroke-miterlimit="10"/>
<path d="M18.8165 19.2294L18.0415 16.3336L20.9373 15.5586" stroke="#149F75" stroke-miterlimit="10"/>
<path d="M12.5583 14.834L7.43335 17.7923" stroke="#149F75" stroke-miterlimit="10"/>
<path d="M7.0625 15.5586L9.95833 16.3336L9.18333 19.2294" stroke="#149F75" stroke-miterlimit="10"/>
</svg>
