<svg width="28" height="28" viewBox="0 0 28 28" fill="none" xmlns="http://www.w3.org/2000/svg">
<path d="M7.33325 8H11.3333C12.0405 8 12.7188 8.28095 13.2189 8.78105C13.719 9.28115 13.9999 9.95942 13.9999 10.6667V20C13.9999 19.4696 13.7892 18.9609 13.4141 18.5858C13.0391 18.2107 12.5304 18 11.9999 18H7.33325V8Z" stroke="#149F75" stroke-linecap="round" stroke-linejoin="round"/>
<path d="M20.6667 8H16.6667C15.9594 8 15.2811 8.28095 14.781 8.78105C14.281 9.28115 14 9.95942 14 10.6667V20C14 19.4696 14.2107 18.9609 14.5858 18.5858C14.9609 18.2107 15.4696 18 16 18H20.6667V8Z" stroke="#149F75" stroke-linecap="round" stroke-linejoin="round"/>
</svg>
