<svg width="32" height="32" viewBox="0 0 32 32" fill="none" xmlns="http://www.w3.org/2000/svg">
<circle cx="16" cy="16" r="16" fill="black" fill-opacity="0.2"/>
<path d="M15.7861 17.0164C16.2003 17.0164 16.5361 16.6806 16.5361 16.2664C16.5361 15.8521 16.2003 15.5164 15.7861 15.5164C15.3719 15.5164 15.0361 15.8521 15.0361 16.2664C15.0361 16.6806 15.3719 17.0164 15.7861 17.0164Z" stroke="#F6F6EC" stroke-width="1.2" stroke-linecap="round" stroke-linejoin="round"/>
<path d="M21.0361 17.0164C21.4503 17.0164 21.7861 16.6806 21.7861 16.2664C21.7861 15.8521 21.4503 15.5164 21.0361 15.5164C20.6219 15.5164 20.2861 15.8521 20.2861 16.2664C20.2861 16.6806 20.6219 17.0164 21.0361 17.0164Z" stroke="#F6F6EC" stroke-width="1.2" stroke-linecap="round" stroke-linejoin="round"/>
<path d="M10.5361 17.0164C10.9503 17.0164 11.2861 16.6806 11.2861 16.2664C11.2861 15.8521 10.9503 15.5164 10.5361 15.5164C10.1219 15.5164 9.78613 15.8521 9.78613 16.2664C9.78613 16.6806 10.1219 17.0164 10.5361 17.0164Z" stroke="#F6F6EC" stroke-width="1.2" stroke-linecap="round" stroke-linejoin="round"/>
</svg>
