<svg width="323" height="194" viewBox="0 0 323 194" fill="none" xmlns="http://www.w3.org/2000/svg">
<path fill-rule="evenodd" clip-rule="evenodd" d="M158.013 177.86C130.324 177.265 99.5534 190.086 79.8529 183.097C57.2147 175.066 103.118 162.356 87.4174 152.816C71.6109 143.212 11.9662 146.635 2.86419 136.317C-4.85005 127.572 36.921 124.084 57.5841 118.998C72.8526 115.241 89.1323 112.163 107.917 110.462C124.769 108.936 142.465 109.108 160.471 109.681C178.678 110.261 195.709 112.22 213.64 113.827C240.953 116.276 272.871 115.042 293.838 121.64C314.942 128.281 321.675 138.707 321.638 147.812C321.601 156.954 309.82 165.334 293.633 172.277C278.14 178.922 257.93 185.285 231.757 186.362C206.581 187.399 183.804 178.415 158.013 177.86Z" fill="#F6FEFB"/>
<g clip-path="url(#clip0_203_6625)">
<path d="M191.881 43.8076L129.184 52.6191C128.063 52.7767 127.281 53.8134 127.439 54.9352C127.597 56.0569 128.633 56.8381 129.755 56.6804L192.452 47.8689C193.574 47.7113 194.355 46.6746 194.198 45.5528C194.04 44.4314 193.003 43.6499 191.881 43.8076Z" fill="#149F75"/>
<path d="M194.066 59.3544L131.369 68.166C130.248 68.3236 129.466 69.3603 129.624 70.482C129.782 71.6038 130.818 72.3849 131.94 72.2273L194.637 63.4158C195.759 63.2582 196.54 62.2215 196.382 61.0997C196.225 59.978 195.188 59.1968 194.066 59.3544Z" fill="#149F75"/>
<path d="M196.251 74.901L133.554 83.7125C132.433 83.8701 131.651 84.9069 131.809 86.0286C131.966 87.1504 133.003 87.9315 134.125 87.7739L196.822 78.9624C197.944 78.8048 198.725 77.768 198.567 76.6463C198.41 75.5245 197.373 74.7434 196.251 74.901Z" fill="#149F75"/>
<path d="M231.046 133.67C230.826 135.762 229.212 137.522 227.037 137.828L205.128 140.907C204.006 141.065 203.225 142.101 203.382 143.223C203.54 144.345 204.577 145.126 205.698 144.969L227.608 141.889C232.399 141.216 235.751 136.78 235.097 131.992C235.096 131.981 235.095 131.97 235.093 131.959C235.093 131.958 235.093 131.958 235.093 131.957L225.356 62.6785C225.028 60.3435 223.756 58.1999 221.866 56.7909C221.862 56.7879 221.859 56.7843 221.855 56.7812C221.853 56.7796 221.85 56.7783 221.848 56.7767C221.845 56.7741 221.841 56.7713 221.838 56.7687L212.756 50.0571L212.112 45.4767C211.954 44.355 210.918 43.5738 209.796 43.7314C208.675 43.8891 207.893 44.9258 208.051 46.0475L211.086 67.6425L179.364 109.661L173.112 107.288C170.283 106.214 167.147 106.654 164.724 108.467L159.369 112.471L117.294 80.8242L112.367 45.7687C112 43.1562 113.827 40.7317 116.439 40.3646L200.755 28.5148C203.367 28.1476 205.792 29.9746 206.159 32.5871L206.836 37.4036C206.993 38.5254 208.03 39.3065 209.152 39.1489C210.273 38.9913 211.055 37.9543 210.897 36.8329L210.22 32.0164C209.538 27.1641 205.036 23.7716 200.184 24.4535L181.637 27.0601L161.491 12.1721C161.469 12.1559 161.446 12.14 161.424 12.1249C157.666 9.57286 152.638 10.2795 149.729 13.7685C149.711 13.7892 149.695 13.8106 149.678 13.8323L134.416 33.6965L115.869 36.3032C111.017 36.9851 107.624 41.4872 108.306 46.3395L110.841 64.3803L103.961 73.3353C103.958 73.339 103.955 73.3429 103.953 73.3469C103.951 73.3488 103.95 73.3501 103.948 73.3519C103.946 73.3553 103.944 73.3589 103.941 73.362C102.512 75.2378 101.88 77.6498 102.208 79.9856L105.465 103.159C105.622 104.28 106.659 105.061 107.781 104.904C108.902 104.746 109.684 103.71 109.526 102.588L106.269 79.4148C106.189 78.8473 106.22 78.2728 106.343 77.7188L155.948 115.03L115.523 145.26L110.77 111.438C110.612 110.316 109.575 109.535 108.454 109.692C107.332 109.85 106.551 110.887 106.708 112.009L111.944 149.264L111.945 149.266C111.946 149.277 111.948 149.288 111.95 149.298C112.641 154.082 117.086 157.422 121.877 156.749L196.848 146.212C197.97 146.054 198.751 145.017 198.594 143.896C198.436 142.774 197.399 141.993 196.278 142.151L121.306 152.687C119.131 152.993 117.095 151.746 116.306 149.796L167.181 111.751C168.474 110.784 170.147 110.549 171.657 111.122L231.046 133.67ZM152.903 16.3665C154.451 14.5387 157.097 14.1668 159.089 15.4971L175.839 27.8749L140.214 32.8817L152.903 16.3665ZM112.663 77.3406L108.475 74.191L111.641 70.0708L112.663 77.3406ZM220.756 61.6391C221.027 62.1378 221.215 62.6815 221.295 63.249L230.549 129.095L183.358 111.178L220.756 61.6391ZM217.734 58.8359L214.577 63.0175L213.555 55.7477L217.734 58.8359Z" fill="#149F75"/>
</g>
<defs>
<clipPath id="clip0_203_6625">
<rect width="140" height="140" fill="white" transform="translate(85.9393 20.4234) rotate(-8)"/>
</clipPath>
</defs>
</svg>
