<svg width="302" height="181" viewBox="0 0 302 181" fill="none" xmlns="http://www.w3.org/2000/svg">
<path fill-rule="evenodd" clip-rule="evenodd" d="M147.603 166.423C121.704 165.866 92.9231 177.858 74.4961 171.321C53.3214 163.809 96.2573 151.921 81.5716 142.998C66.787 134.014 10.9982 137.216 2.4846 127.565C-4.73094 119.386 34.3397 116.123 53.667 111.366C67.9484 107.851 83.1757 104.972 100.746 103.381C116.509 101.954 133.061 102.115 149.903 102.651C166.932 103.193 182.862 105.025 199.634 106.529C225.182 108.82 255.036 107.665 274.648 113.836C294.387 120.048 300.685 129.8 300.65 138.317C300.615 146.868 289.596 154.706 274.456 161.2C259.964 167.416 241.061 173.367 216.58 174.375C193.032 175.344 171.727 166.941 147.603 166.423Z" fill="#E4FCF4"/>
<g clip-path="url(#clip0_583_17315)">
<path d="M179.282 41.0361L120.638 49.278C119.589 49.4254 118.858 50.3951 119.006 51.4443C119.153 52.4935 120.123 53.2242 121.172 53.0768L179.816 44.8349C180.865 44.6875 181.596 43.7178 181.449 42.6686C181.301 41.6196 180.331 40.8887 179.282 41.0361Z" fill="#149F75"/>
<path d="M181.326 55.5776L122.682 63.8195C121.633 63.9669 120.902 64.9366 121.05 65.9858C121.197 67.0351 122.167 67.7657 123.216 67.6183L181.86 59.3764C182.909 59.229 183.64 58.2593 183.492 57.2101C183.345 56.1608 182.375 55.4302 181.326 55.5776Z" fill="#149F75"/>
<path d="M183.37 70.1191L124.726 78.361C123.677 78.5084 122.946 79.4781 123.093 80.5273C123.241 81.5766 124.211 82.3072 125.26 82.1598L183.904 73.9179C184.953 73.7705 185.684 72.8008 185.536 71.7516C185.389 70.7023 184.419 69.9717 183.37 70.1191V70.1191Z" fill="#149F75"/>
<path d="M215.915 125.089C215.709 127.046 214.199 128.692 212.166 128.978L191.672 131.858C190.623 132.006 189.892 132.975 190.04 134.025C190.187 135.074 191.157 135.805 192.206 135.657L212.699 132.777C217.18 132.147 220.316 127.998 219.704 123.519C219.703 123.509 219.702 123.499 219.7 123.489C219.7 123.488 219.7 123.488 219.7 123.487L210.593 58.687C210.286 56.5029 209.097 54.4979 207.329 53.18C207.325 53.1772 207.322 53.1738 207.318 53.171C207.316 53.1694 207.314 53.1682 207.312 53.1667C207.308 53.1643 207.305 53.1616 207.302 53.1593L198.807 46.8815L198.205 42.5973C198.058 41.548 197.088 40.8174 196.039 40.9648C194.99 41.1122 194.259 42.0819 194.406 43.1312L197.245 63.3301L167.574 102.632L161.726 100.413C159.08 99.4079 156.147 99.8199 153.88 101.515L148.871 105.261L109.516 75.6596L104.908 42.8704C104.565 40.4267 106.274 38.159 108.717 37.8156L187.582 26.7319C190.025 26.3885 192.293 28.0973 192.637 30.541L193.27 35.0461C193.417 36.0953 194.387 36.826 195.436 36.6785C196.485 36.5311 197.216 35.5612 197.069 34.5122L196.435 30.0071C195.798 25.4685 191.586 22.2953 187.048 22.9331L169.7 25.3712L150.856 11.4457C150.836 11.4305 150.815 11.4157 150.794 11.4015C147.279 9.0145 142.576 9.67542 139.855 12.9389C139.839 12.9583 139.823 12.9783 139.807 12.9986L125.532 31.5786L108.184 34.0168C103.645 34.6546 100.472 38.8657 101.11 43.4042L103.481 60.2787L97.0456 68.6548C97.043 68.6583 97.0404 68.662 97.0378 68.6657C97.0365 68.6674 97.0351 68.6687 97.0338 68.6704C97.0314 68.6736 97.0296 68.6769 97.0274 68.6798C95.6904 70.4343 95.0989 72.6904 95.4059 74.8752L98.4522 96.5501C98.5996 97.5993 99.5695 98.33 100.618 98.1826C101.667 98.0351 102.398 97.0655 102.251 96.0162L99.2047 74.3413C99.1301 73.8105 99.159 73.2732 99.2736 72.755L145.671 107.654L107.86 135.93L103.414 104.294C103.267 103.245 102.297 102.514 101.248 102.662C100.199 102.809 99.4681 103.779 99.6155 104.828L104.513 139.675L104.513 139.677C104.515 139.687 104.517 139.697 104.518 139.707C105.165 144.181 109.323 147.305 113.803 146.676L183.928 136.82C184.977 136.673 185.708 135.703 185.561 134.654C185.413 133.605 184.443 132.874 183.394 133.021L113.269 142.877C111.235 143.163 109.33 141.996 108.593 140.172L156.178 104.587C157.388 103.682 158.953 103.462 160.365 103.999L215.915 125.089ZM142.824 15.369C144.272 13.6593 146.747 13.3114 148.61 14.5557L164.277 26.1334L130.955 30.8165L142.824 15.369ZM105.185 72.4012L101.268 69.4552L104.229 65.6014L105.185 72.4012ZM206.291 57.7147C206.544 58.1812 206.719 58.6898 206.794 59.2206L215.45 120.809L171.31 104.051L206.291 57.7147ZM203.464 55.0928L200.511 59.004L199.555 52.2042L203.464 55.0928Z" fill="#149F75"/>
</g>
<defs>
<clipPath id="clip0_583_17315">
<rect width="130.949" height="130.949" fill="white" transform="translate(80.1891 19.1636) rotate(-8)"/>
</clipPath>
</defs>
</svg>
