<svg width="28" height="28" viewBox="0 0 28 28" fill="none" xmlns="http://www.w3.org/2000/svg">
<path d="M20.6666 17.208V18.333C20.6666 18.8872 20.1958 19.333 19.6166 19.333H8.38325C7.80409 19.333 7.33325 18.8872 7.33325 18.333V17.208" stroke="#149F75" stroke-miterlimit="10"/>
<path d="M15.9999 13H15.3333V13.6667H15.9999V13Z" fill="#149F75"/>
<path d="M12.3334 13.333H11.6667V13.9997H12.3334V13.333Z" fill="#149F75"/>
<path d="M14.3334 10.667H13.6667V11.3337H14.3334V10.667Z" fill="#149F75"/>
<path d="M10.3334 11.667H9.66675V12.3337H10.3334V11.667Z" fill="#149F75"/>
<path d="M18.3334 12H17.6667V12.6667H18.3334V12Z" fill="#149F75"/>
<path d="M13.7292 17.3333H7.88758C7.21258 17.3333 6.66675 16.8125 6.66675 16.1667C6.66675 15.5208 7.21258 15 7.88758 15H20.1126C20.7876 15 21.3334 15.5208 21.3334 16.1667C21.3334 16.8125 20.7876 17.3333 20.1126 17.3333H15.6042" stroke="#149F75" stroke-miterlimit="10"/>
<path d="M7.3335 15.125V14C7.3335 11.2375 10.1335 9 14.0002 9C17.8668 9 20.6668 11.2375 20.6668 14V15.125" stroke="#149F75" stroke-miterlimit="10"/>
<path d="M10 15C10.6448 15.0004 11.2683 15.2309 11.7583 15.65L14.6667 18.1333L17.575 15.65C18.065 15.2309 18.6885 15.0004 19.3333 15" stroke="#149F75" stroke-miterlimit="10"/>
</svg>
