<svg width="30" height="30" viewBox="0 0 30 30" fill="none" xmlns="http://www.w3.org/2000/svg">
<path d="M22.4359 14.748C21.789 11.8237 20.8296 9.95829 19.2919 9.50372C18.9941 9.41684 18.6853 9.3735 18.375 9.37505C17.4297 9.37505 16.6837 9.93755 15 9.93755C13.3164 9.93755 12.569 9.37505 11.625 9.37505C11.3019 9.37337 10.98 9.41668 10.6688 9.50372C9.12894 9.95829 8.17761 11.8254 7.52335 14.748C6.85538 17.7331 6.97632 20.0917 8.28202 20.5446C9.19609 20.861 10.0135 20.2067 10.7876 19.2438C11.6665 18.1469 12.749 17.8094 15 17.8094C17.2511 17.8094 18.2914 18.1469 19.1717 19.2438C19.9451 20.2074 20.7927 20.8536 21.6825 20.5502C23.1246 20.0576 23.1042 17.7683 22.4359 14.748Z" stroke="#149F75" stroke-miterlimit="10"/>
<path d="M17.4546 13.2046C17.601 13.0582 17.601 12.8207 17.4546 12.6743C17.3081 12.5278 17.0707 12.5278 16.9242 12.6743C16.7778 12.8207 16.7778 13.0582 16.9242 13.2046C17.0707 13.3511 17.3081 13.3511 17.4546 13.2046Z" fill="#149F75"/>
<path d="M20.1062 15.856C20.0537 15.9085 19.9868 15.9442 19.914 15.9586C19.8413 15.9731 19.7658 15.9656 19.6973 15.9372C19.6287 15.9087 19.5702 15.8606 19.529 15.7989C19.4878 15.7371 19.4659 15.6646 19.466 15.5904C19.4661 15.5161 19.4882 15.4436 19.5295 15.382C19.5708 15.3204 19.6295 15.2724 19.6981 15.2441C19.7668 15.2158 19.8422 15.2086 19.915 15.2232C19.9877 15.2378 20.0545 15.2737 20.1068 15.3263C20.1769 15.3967 20.2161 15.492 20.216 15.5913C20.2159 15.6906 20.1764 15.7858 20.1062 15.856Z" fill="#149F75"/>
<path d="M17.7955 15.7398C17.9419 15.5933 17.9419 15.3559 17.7955 15.2094C17.649 15.063 17.4116 15.063 17.2652 15.2094C17.1187 15.3559 17.1187 15.5933 17.2652 15.7398C17.4116 15.8862 17.649 15.8862 17.7955 15.7398Z" fill="#149F75"/>
<path d="M19.7401 13.7954C19.8865 13.649 19.8865 13.4116 19.7401 13.2651C19.5936 13.1187 19.3562 13.1187 19.2097 13.2651C19.0633 13.4116 19.0633 13.649 19.2097 13.7954C19.3562 13.9419 19.5936 13.9419 19.7401 13.7954Z" fill="#149F75"/>
<path d="M11.625 12.1875V15.5625" stroke="#149F75" stroke-linecap="round" stroke-linejoin="round"/>
<path d="M13.3125 13.875H9.9375" stroke="#149F75" stroke-linecap="round" stroke-linejoin="round"/>
</svg>
