<svg width="22" height="22" viewBox="0 0 22 22" fill="none" xmlns="http://www.w3.org/2000/svg">
<path d="M19.1036 4.22555C18.6354 3.75714 18.0795 3.38556 17.4677 3.13205C16.8558 2.87853 16.2001 2.74805 15.5378 2.74805C14.8755 2.74805 14.2197 2.87853 13.6079 3.13205C12.996 3.38556 12.4401 3.75714 11.9719 4.22555L11.0003 5.19722L10.0286 4.22555C9.08289 3.27984 7.80022 2.74854 6.46277 2.74854C5.12532 2.74854 3.84266 3.27984 2.89694 4.22555C1.95122 5.17127 1.41992 6.45394 1.41992 7.79139C1.41992 9.12883 1.95122 10.4115 2.89694 11.3572L3.8686 12.3289L11.0003 19.4606L18.1319 12.3289L19.1036 11.3572C19.572 10.889 19.9436 10.3331 20.1971 9.7213C20.4506 9.10946 20.5811 8.45367 20.5811 7.79139C20.5811 7.12911 20.4506 6.47332 20.1971 5.86148C19.9436 5.24964 19.572 4.69375 19.1036 4.22555V4.22555Z" stroke="black" stroke-linecap="round" stroke-linejoin="round"/>
</svg>
