<svg width="30" height="30" viewBox="0 0 30 30" fill="none" xmlns="http://www.w3.org/2000/svg">
<circle cx="15" cy="15.0269" r="14.2857" stroke="#149F75" stroke-width="0.5"/>
<path d="M17.9769 9.07422H12.0245C10.3808 9.07422 9.04828 10.4067 9.04828 12.0504V18.0028C9.04828 19.6465 10.3808 20.979 12.0245 20.979H17.9769C19.6206 20.979 20.953 19.6465 20.953 18.0028V12.0504C20.953 10.4067 19.6206 9.07422 17.9769 9.07422Z" stroke="#149F75" stroke-linecap="round" stroke-linejoin="round"/>
<path d="M17.3801 14.6518C17.4536 15.1472 17.369 15.6531 17.1383 16.0977C16.9077 16.5422 16.5427 16.9027 16.0954 17.1278C15.6481 17.353 15.1411 17.4313 14.6467 17.3518C14.1522 17.2722 13.6955 17.0388 13.3413 16.6847C12.9872 16.3305 12.7538 15.8738 12.6742 15.3793C12.5947 14.8849 12.673 14.378 12.8982 13.9306C13.1233 13.4833 13.4838 13.1183 13.9283 12.8877C14.3729 12.657 14.8788 12.5724 15.3742 12.6459C15.8795 12.7208 16.3473 12.9563 16.7085 13.3175C17.0697 13.6787 17.3052 14.1465 17.3801 14.6518Z" stroke="#149F75" stroke-linecap="round" stroke-linejoin="round"/>
<path d="M18.2729 11.7529H18.2789" stroke="#149F75" stroke-linecap="round" stroke-linejoin="round"/>
</svg>
