<svg width="30" height="30" viewBox="0 0 30 30" fill="none" xmlns="http://www.w3.org/2000/svg">
<circle cx="15.4286" cy="15.0269" r="14.2857" stroke="#149F75" stroke-width="0.5"/>
<g clip-path="url(#clip0_375_7111)">
<path d="M17.81 12.6455C18.7572 12.6455 19.6656 13.0218 20.3354 13.6916C21.0051 14.3613 21.3814 15.2697 21.3814 16.2169V20.3836H19.0005V16.2169C19.0005 15.9012 18.875 15.5984 18.6518 15.3751C18.4285 15.1519 18.1257 15.0265 17.81 15.0265C17.4943 15.0265 17.1914 15.1519 16.9682 15.3751C16.7449 15.5984 16.6195 15.9012 16.6195 16.2169V20.3836H14.2386V16.2169C14.2386 15.2697 14.6148 14.3613 15.2846 13.6916C15.9544 13.0218 16.8628 12.6455 17.81 12.6455Z" fill="#149F75" stroke="#149F75" stroke-linecap="round" stroke-linejoin="round"/>
<path d="M11.8578 13.2412H9.47684V20.3841H11.8578V13.2412Z" fill="#149F75" stroke="#149F75" stroke-linecap="round" stroke-linejoin="round"/>
<path d="M10.6673 11.4552C11.3248 11.4552 11.8578 10.9222 11.8578 10.2647C11.8578 9.60721 11.3248 9.07422 10.6673 9.07422C10.0098 9.07422 9.47684 9.60721 9.47684 10.2647C9.47684 10.9222 10.0098 11.4552 10.6673 11.4552Z" fill="#149F75" stroke="#149F75" stroke-linecap="round" stroke-linejoin="round"/>
</g>
<defs>
<clipPath id="clip0_375_7111">
<rect width="14.2857" height="14.2857" fill="white" transform="translate(8.28543 7.88379)"/>
</clipPath>
</defs>
</svg>
