<svg width="26" height="26" viewBox="0 0 26 26" fill="none" xmlns="http://www.w3.org/2000/svg">
<g clip-path="url(#clip0_193_5273)">
<path d="M13.3664 17.4286L11.6428 18.8749C11.2655 19.1915 10.8297 19.4306 10.36 19.5787C9.89032 19.7268 9.39609 19.7809 8.90551 19.738C7.91473 19.6513 6.99896 19.1746 6.35967 18.4127C5.72038 17.6508 5.40993 16.6662 5.49661 15.6754C5.58329 14.6846 6.06001 13.7689 6.82189 13.1296L8.54549 11.6833M11.9927 8.79077L13.7163 7.3445C14.0935 7.02795 14.5294 6.78881 14.9991 6.64072C15.4688 6.49264 15.963 6.43851 16.4536 6.48143C16.9442 6.52435 17.4215 6.66348 17.8583 6.89087C18.2951 7.11826 18.6829 7.42947 18.9994 7.80671C19.316 8.18395 19.5551 8.61985 19.7032 9.08952C19.8513 9.55918 19.9054 10.0534 19.8625 10.544C19.8195 11.0346 19.6804 11.5119 19.453 11.9487C19.2256 12.3855 18.9144 12.7733 18.5372 13.0898L16.8136 14.5361L11.9927 8.79077Z" stroke="#149F75" stroke-width="1.6" stroke-linecap="round" stroke-linejoin="round"/>
<path d="M10.3813 15.0381L14.9776 11.1814" stroke="#149F75" stroke-width="1.6" stroke-linecap="round" stroke-linejoin="round"/>
</g>
<defs>
<clipPath id="clip0_193_5273">
<rect width="18" height="18" fill="white" transform="translate(0 12) rotate(-40)"/>
</clipPath>
</defs>
</svg>
