<svg width="48" height="48" viewBox="0 0 48 48" fill="none" xmlns="http://www.w3.org/2000/svg">
<circle cx="24" cy="24" r="24" fill="white"/>
<path d="M28 17C29.5913 17 31.1174 17.6321 32.2426 18.7574C33.3679 19.8826 34 21.4087 34 23V30H30V23C30 22.4696 29.7893 21.9609 29.4142 21.5858C29.0391 21.2107 28.5304 21 28 21C27.4696 21 26.9609 21.2107 26.5858 21.5858C26.2107 21.9609 26 22.4696 26 23V30H22V23C22 21.4087 22.6321 19.8826 23.7574 18.7574C24.8826 17.6321 26.4087 17 28 17Z" fill="#0077B7" stroke="#0077B7" stroke-width="0.4" stroke-linecap="round" stroke-linejoin="round"/>
<path d="M18 18H14V30H18V18Z" fill="#0077B7" stroke="#0077B7" stroke-width="0.4" stroke-linecap="round" stroke-linejoin="round"/>
<path d="M16 26C17.1046 26 18 25.1046 18 24C18 22.8954 17.1046 22 16 22C14.8954 22 14 22.8954 14 24C14 25.1046 14.8954 26 16 26Z" fill="#0077B7" stroke="#0077B7" stroke-width="0.4" stroke-linecap="round" stroke-linejoin="round"/>
</svg>
