<svg width="323" height="188" viewBox="0 0 323 188" fill="none" xmlns="http://www.w3.org/2000/svg">
<path fill-rule="evenodd" clip-rule="evenodd" d="M157.805 171.86C130.116 171.265 99.3457 184.086 79.6451 177.097C57.0069 169.066 102.91 156.356 87.2096 146.816C71.4031 137.212 11.7584 140.635 2.65643 130.317C-5.05781 121.572 36.7132 118.084 57.3764 112.998C72.6448 109.241 88.9245 106.163 107.709 104.462C124.561 102.936 142.257 103.108 160.264 103.681C178.47 104.261 195.501 106.22 213.432 107.827C240.745 110.276 272.664 109.042 293.63 115.64C314.734 122.281 321.467 132.707 321.43 141.812C321.393 150.954 309.612 159.334 293.425 166.277C277.932 172.922 257.722 179.285 231.55 180.362C206.374 181.399 183.597 172.415 157.805 171.86Z" fill="#F6FEFB"/>
<g clip-path="url(#clip0_209_5498)">
<path d="M151.111 10.6813C129.708 13.6893 114.742 33.5497 117.75 54.9532L120.421 73.9598C120.603 75.2541 121.801 76.156 123.095 75.9741L136.108 74.1453C137.402 73.9634 138.304 72.7664 138.122 71.4721L135.451 52.4655C133.815 40.8226 141.955 30.0191 153.598 28.3828C165.241 26.7465 176.044 34.8876 177.681 46.5305L180.352 65.5371C180.534 66.8314 181.732 67.7333 183.027 67.5513L196.039 65.7225C197.334 65.5406 198.236 64.3436 198.054 63.0493L195.382 44.0426C192.375 22.6391 172.514 7.67325 151.111 10.6813ZM193.037 61.3642L184.711 62.5343L182.369 45.8715C180.37 31.6439 167.168 21.6955 152.94 23.695C138.713 25.6946 128.765 38.8965 130.764 53.1242L133.106 69.7869L124.78 70.9571L122.438 54.2943C119.793 35.4756 132.951 18.014 151.77 15.3692C170.589 12.7244 188.05 25.8827 190.695 44.7014L193.037 61.3642Z" fill="#149F75"/>
<path d="M200.778 60.2762L117.038 72.0451C111.486 72.8254 107.603 77.9776 108.384 83.5299L117.24 146.549C118.021 152.101 123.173 155.984 128.725 155.203L212.465 143.434C218.018 142.654 221.9 137.502 221.119 131.949L212.263 68.9307C211.482 63.3784 206.33 59.4959 200.778 60.2762ZM216.432 132.608C216.849 135.576 214.774 138.329 211.806 138.746L128.066 150.515C125.099 150.932 122.345 148.857 121.928 145.89L113.071 82.8711C112.654 79.9034 114.729 77.1498 117.697 76.7328L201.437 64.9639C204.404 64.5468 207.158 66.6217 207.575 69.5895L216.432 132.608Z" fill="#149F75"/>
<path d="M173.065 109.701C175.479 107.009 176.599 103.412 176.089 99.7874C175.143 93.0524 168.893 88.3431 162.158 89.2896C155.423 90.2362 150.714 96.4857 151.66 103.221C152.17 106.846 154.237 109.995 157.3 111.918L156.43 124.842C156.382 125.554 156.657 126.249 157.18 126.734C157.702 127.22 158.415 127.444 159.121 127.345L175.567 125.034C176.274 124.934 176.897 124.522 177.265 123.912C177.633 123.3 177.706 122.556 177.464 121.886L173.065 109.701ZM168.787 107.276C168.038 107.916 167.762 108.953 168.097 109.881L172.022 120.751L161.349 122.251L162.126 110.721C162.192 109.737 161.642 108.815 160.745 108.407C158.353 107.319 156.71 105.133 156.348 102.562C155.765 98.412 158.667 94.5612 162.817 93.9778C166.967 93.3946 170.818 96.2964 171.401 100.447C171.763 103.018 170.786 105.571 168.787 107.276Z" fill="#149F75"/>
</g>
<defs>
<clipPath id="clip0_209_5498">
<rect x="81.7922" y="20.4234" width="140" height="140" transform="rotate(-8 81.7922 20.4234)" fill="white"/>
</clipPath>
</defs>
</svg>
