<svg width="28" height="28" viewBox="0 0 28 28" fill="none" xmlns="http://www.w3.org/2000/svg">
<path d="M19.8933 9.07357C19.5528 8.73291 19.1485 8.46267 18.7036 8.2783C18.2586 8.09392 17.7817 7.99902 17.3 7.99902C16.8183 7.99902 16.3414 8.09392 15.8964 8.2783C15.4515 8.46267 15.0472 8.73291 14.7067 9.07357L14 9.78024L13.2933 9.07357C12.6055 8.38578 11.6727 7.99938 10.7 7.99938C9.72731 7.99938 8.79446 8.38578 8.10666 9.07357C7.41887 9.76137 7.03247 10.6942 7.03247 11.6669C7.03247 12.6396 7.41887 13.5724 8.10666 14.2602L8.81333 14.9669L14 20.1536L19.1867 14.9669L19.8933 14.2602C20.234 13.9197 20.5042 13.5154 20.6886 13.0705C20.873 12.6255 20.9679 12.1486 20.9679 11.6669C20.9679 11.1852 20.873 10.7083 20.6886 10.2633C20.5042 9.81836 20.234 9.41408 19.8933 9.07357V9.07357Z" stroke="#149F75" stroke-linecap="round" stroke-linejoin="round"/>
</svg>
