<svg width="22" height="22" viewBox="0 0 22 22" fill="none" xmlns="http://www.w3.org/2000/svg">
<path d="M19.25 9.16699C19.25 15.5837 11 21.0837 11 21.0837C11 21.0837 2.75 15.5837 2.75 9.16699C2.75 6.97896 3.61919 4.88054 5.16637 3.33336C6.71354 1.78619 8.81196 0.916992 11 0.916992C13.188 0.916992 15.2865 1.78619 16.8336 3.33336C18.3808 4.88054 19.25 6.97896 19.25 9.16699Z" stroke="#149F75" stroke-width="1.4" stroke-linecap="round" stroke-linejoin="round"/>
<path d="M11 11.917C12.5188 11.917 13.75 10.6858 13.75 9.16699C13.75 7.64821 12.5188 6.41699 11 6.41699C9.48122 6.41699 8.25 7.64821 8.25 9.16699C8.25 10.6858 9.48122 11.917 11 11.917Z" stroke="#149F75" stroke-width="1.4" stroke-linecap="round" stroke-linejoin="round"/>
</svg>
