<svg width="28" height="28" viewBox="0 0 28 28" fill="none" xmlns="http://www.w3.org/2000/svg">
<path d="M13.9999 20.6663C17.6818 20.6663 20.6666 17.6816 20.6666 13.9997C20.6666 10.3178 17.6818 7.33301 13.9999 7.33301C10.318 7.33301 7.33325 10.3178 7.33325 13.9997C7.33325 17.6816 10.318 20.6663 13.9999 20.6663Z" stroke="#149F75" stroke-linecap="round" stroke-linejoin="round"/>
<path d="M14 18C16.2091 18 18 16.2091 18 14C18 11.7909 16.2091 10 14 10C11.7909 10 10 11.7909 10 14C10 16.2091 11.7909 18 14 18Z" stroke="#149F75" stroke-linecap="round" stroke-linejoin="round"/>
<path d="M14.0001 15.3337C14.7365 15.3337 15.3334 14.7367 15.3334 14.0003C15.3334 13.2639 14.7365 12.667 14.0001 12.667C13.2637 12.667 12.6667 13.2639 12.6667 14.0003C12.6667 14.7367 13.2637 15.3337 14.0001 15.3337Z" stroke="#149F75" stroke-linecap="round" stroke-linejoin="round"/>
</svg>
