<svg width="22" height="22" viewBox="0 0 22 22" fill="none" xmlns="http://www.w3.org/2000/svg">
<path d="M11.0003 12.8337C12.0128 12.8337 12.8337 12.0128 12.8337 11.0003C12.8337 9.9878 12.0128 9.16699 11.0003 9.16699C9.9878 9.16699 9.16699 9.9878 9.16699 11.0003C9.16699 12.0128 9.9878 12.8337 11.0003 12.8337Z" stroke="black" stroke-width="0.8" stroke-linecap="round" stroke-linejoin="round"/>
<path d="M5.91918 13.102C6.19596 13.7696 6.60163 14.3762 7.113 14.887L5.91918 13.102ZM5.91918 13.102C5.64239 12.4343 5.49993 11.7186 5.49993 10.9958M5.91918 13.102L5.49993 10.9958M5.49993 10.9958C5.49993 10.273 5.64239 9.5573 5.91918 8.88961C6.19596 8.22192 6.60163 7.61533 7.113 7.10453L6.1624 8.37885L5.49993 10.9958ZM4.51884 17.4812C2.80035 15.7622 1.83496 13.431 1.83496 11.0004C1.83496 8.56969 2.80035 6.23854 4.51884 4.51953M14.8863 7.1137C15.3977 7.6245 15.8034 8.23109 16.0802 8.89878C16.3569 9.56647 16.4994 10.2822 16.4994 11.0049C16.4994 11.7277 16.3569 12.4434 16.0802 13.1111C15.8034 13.7788 15.3977 14.3854 14.8863 14.8962L15.8045 13.102L16.0802 10.9958L15.8045 8.88961L14.8863 7.1137ZM17.4805 4.51953C19.199 6.23854 20.1644 8.56969 20.1644 11.0004C20.1644 13.431 19.199 15.7622 17.4805 17.4812L19.2996 14.887L20.1665 11.0007L19.2498 7.33398L17.4805 4.51953Z" stroke="black" stroke-width="0.8" stroke-linecap="round" stroke-linejoin="round"/>
</svg>
