<svg width="16" height="16" viewBox="0 0 16 16" fill="none" xmlns="http://www.w3.org/2000/svg">
<path d="M8 15.5C12.1423 15.5 15.5 12.1422 15.5 8C15.5 3.85775 12.1423 0.5 8 0.5C3.85775 0.5 0.500005 3.85775 0.500005 8C0.498317 9.48354 0.93796 10.934 1.763 12.167C1.8545 12.3031 1.68313 13.1645 1.25 14.75C2.83588 14.3169 3.69688 14.1455 3.833 14.237C5.06596 15.062 6.51647 15.5017 8 15.5V15.5Z" stroke="#666666" stroke-linejoin="round"/>
<path d="M4.47656 9.50059H10.7691M5.22656 6.43309H11.5191H5.22656ZM7.19231 4.90234L6.09994 11.0988L7.19231 4.90234ZM9.81731 4.90234L8.72494 11.0988L9.81731 4.90234Z" stroke="#666666" stroke-linecap="round" stroke-linejoin="round"/>
</svg>
