<svg width="128" height="128" viewBox="0 0 128 128" fill="none" xmlns="http://www.w3.org/2000/svg">
<g clip-path="url(#clip0_1151_23201)">
<path d="M55.9941 24.7373V128C84.5093 128 107.625 104.884 107.625 76.3686C107.625 47.8534 84.5093 24.7373 55.9941 24.7373Z" fill="#FCC95D"/>
<path d="M100.014 76.3686C100.014 47.8534 80.306 24.7373 55.9946 24.7373C27.4794 24.7373 4.36328 47.8534 4.36328 76.3686C4.36328 104.884 27.4794 128 55.9946 128C80.3062 128 100.014 104.884 100.014 76.3686Z" fill="#FCE06F"/>
<path d="M55.994 84.6061L28.668 92.3569C31.0509 96.0104 34.1449 99.1578 37.7564 101.6H74.2322C77.8433 99.1578 80.9374 96.0101 83.3206 92.3569L55.994 84.6061Z" fill="#FC6749"/>
<path d="M87.9843 80.8955C88.5438 78.0483 85.8247 75.6694 83.0622 76.5574C82.325 76.7944 81.5843 77.0177 80.8425 77.2348L73.231 84.8463H38.7578L31.1463 77.2348C30.4044 77.0177 29.6638 76.7944 28.9265 76.5574C26.164 75.6694 23.445 78.0483 24.0044 80.8955C24.8216 85.0546 26.432 88.9284 28.6682 92.3566C37.5511 94.789 46.7011 96.0231 55.9943 96.0231C65.2876 96.0231 74.4374 94.7887 83.3203 92.3566C85.5568 88.9284 87.1669 85.0546 87.9843 80.8955Z" fill="#E85241"/>
<path d="M55.9947 107.176C66.0673 107.176 74.2327 104.679 74.2327 101.6C74.2327 98.5199 66.0673 96.0233 55.9947 96.0233C45.9222 96.0233 37.7568 98.5199 37.7568 101.6C37.7568 104.679 45.9222 107.176 55.9947 107.176Z" fill="#FAAAC0"/>
<path d="M33.6514 85.7772C40.9443 87.5254 48.4177 88.4118 55.9945 88.4118C63.571 88.4118 71.0447 87.5254 78.3375 85.7772C79.6528 83.1596 80.5197 80.2784 80.8427 77.2351C64.6198 81.9839 47.3694 81.9839 31.1465 77.2351C31.4692 80.2784 32.3362 83.1596 33.6514 85.7772Z" fill="white"/>
<path d="M33.1602 53.5342C31.0585 53.5342 29.3545 55.2381 29.3545 57.3399V64.9514C29.3545 67.0532 31.0585 68.7572 33.1602 68.7572C35.262 68.7572 36.966 67.0532 36.966 64.9514V57.3399C36.966 55.2381 35.2623 53.5342 33.1602 53.5342Z" fill="#4C5A80"/>
<path d="M78.8292 53.5342C76.7274 53.5342 75.0234 55.2381 75.0234 57.3399V64.9514C75.0234 67.0532 76.7274 68.7572 78.8292 68.7572C80.931 68.7572 82.6349 67.0532 82.6349 64.9514V57.3399C82.6349 55.2381 80.9312 53.5342 78.8292 53.5342Z" fill="#4C5A80"/>
<path d="M107.4 46.8589C106.472 47.3527 106.12 48.505 106.614 49.4326C107.108 50.3602 108.26 50.7121 109.188 50.2187C110.116 49.7249 110.467 48.5725 109.974 47.6449C109.48 46.7171 108.328 46.3652 107.4 46.8589Z" fill="#4C5A80"/>
<path d="M123.413 40.4937C122.919 39.5659 121.767 39.2139 120.839 39.7077L114.12 43.2833C113.192 43.7771 112.84 44.9294 113.334 45.8573C113.676 46.5002 114.334 46.8666 115.015 46.8666C115.317 46.8666 115.623 46.7948 115.908 46.6433L122.627 43.0677C123.555 42.5737 123.907 41.4213 123.413 40.4937Z" fill="#4C5A80"/>
<path d="M113.365 40.7502C117.388 37.3826 117.921 31.3703 114.554 27.3474C111.186 23.3247 105.174 22.7916 101.151 26.1592C97.1283 29.5266 96.5953 35.5391 99.9626 39.5621C101.842 41.8069 104.545 42.9649 107.266 42.9649C109.421 42.9649 111.588 42.2385 113.365 40.7502ZM102.881 37.1193C100.86 34.7054 101.18 31.0981 103.594 29.0775C104.661 28.1844 105.96 27.7485 107.254 27.7485C108.886 27.7485 110.508 28.4434 111.636 29.7902C113.656 32.204 113.336 35.8114 110.922 37.832C108.508 39.8526 104.901 39.5326 102.881 37.1193Z" fill="#4C5A80"/>
<path d="M61.2617 0C60.2108 0 59.3588 0.85198 59.3588 1.90287V7.35042H52.63V1.90287C52.63 0.85198 51.778 0 50.7271 0C49.6762 0 48.8242 0.85198 48.8242 1.90287V17.1259C48.8242 18.1768 49.6762 19.0287 50.7271 19.0287C51.778 19.0287 52.63 18.1768 52.63 17.1259V11.1562H59.3588V17.1259C59.3588 18.1768 60.2108 19.0287 61.2617 19.0287C62.3126 19.0287 63.1645 18.1768 63.1645 17.1259V1.90287C63.1645 0.85198 62.3126 0 61.2617 0Z" fill="#4C5A80"/>
<path d="M76.9483 6.84096C77.9764 7.10203 79.0212 6.48017 79.2822 5.45186C79.5431 4.4238 78.9212 3.379 77.8931 3.11817L71.6761 1.54031C70.6483 1.27974 69.6032 1.90135 69.3421 2.92941L65.5975 17.6845C65.3367 18.7126 65.9586 19.7574 66.9866 20.0185L73.2039 21.5963C73.2922 21.6187 73.3803 21.6347 73.4681 21.6443C74.4053 21.7476 75.2994 21.1473 75.5379 20.2075C75.7987 19.1794 75.1768 18.1346 74.1488 17.8738L69.7927 16.7684L70.7246 13.0966L74.6222 14.0856C74.7793 14.1254 74.9366 14.1444 75.0919 14.1444C75.9418 14.1444 76.7161 13.5705 76.9348 12.7092C77.1934 11.6905 76.5771 10.6553 75.5584 10.3968L71.6608 9.40781L72.5927 5.73602L76.9483 6.84096Z" fill="#4C5A80"/>
<path d="M85.2322 22.5924L82.1523 21.0879L87.9931 9.13096C88.4542 8.18662 88.0627 7.04718 87.1186 6.58593C86.1737 6.12442 85.0348 6.51641 84.5735 7.46049L77.8975 21.1272C77.4365 22.0715 77.828 23.211 78.772 23.6722L83.5617 26.012C83.8307 26.1434 84.1153 26.2056 84.3954 26.2056C85.0997 26.2056 85.7767 25.8131 86.1068 25.1377C86.568 24.1931 86.1765 23.0536 85.2322 22.5924Z" fill="#4C5A80"/>
<path d="M95.1726 29.3385L92.4459 27.2613L100.51 16.6755C101.147 15.8395 100.985 14.6455 100.149 14.0087C99.3132 13.3716 98.119 13.5332 97.4824 14.3692L88.2654 26.4687C87.6283 27.3047 87.7899 28.4987 88.6259 29.1355L92.8663 32.3656C93.2106 32.6279 93.616 32.7548 94.0179 32.7548C94.5916 32.7548 95.1586 32.4962 95.5331 32.0048C96.1699 31.1693 96.0086 29.9753 95.1726 29.3385Z" fill="#4C5A80"/>
</g>
<defs>
<clipPath id="clip0_1151_23201">
<rect width="128" height="128" fill="white"/>
</clipPath>
</defs>
</svg>
