<svg width="36" height="36" viewBox="0 0 36 36" fill="none" xmlns="http://www.w3.org/2000/svg">
<circle cx="18" cy="18" r="18" fill="#EDFDF8"/>
<path d="M23.6172 11.7578V15.3418H23.2656C23.0573 14.515 22.8262 13.9225 22.5723 13.5645C22.3184 13.1999 21.9701 12.9102 21.5273 12.6953C21.2799 12.5781 20.847 12.5195 20.2285 12.5195H19.2422V22.7344C19.2422 23.4115 19.278 23.8346 19.3496 24.0039C19.4277 24.1732 19.5742 24.3229 19.7891 24.4531C20.0104 24.5768 20.3099 24.6387 20.6875 24.6387H21.127V25H14.1934V24.6387H14.6328C15.0169 24.6387 15.3262 24.5703 15.5605 24.4336C15.7298 24.3424 15.8633 24.1862 15.9609 23.9648C16.0326 23.8086 16.0684 23.3984 16.0684 22.7344V12.5195H15.1113C14.2194 12.5195 13.5716 12.7083 13.168 13.0859C12.6016 13.6133 12.2435 14.3652 12.0938 15.3418H11.7227V11.7578H23.6172Z" fill="#149F75"/>
</svg>
