<svg width="13" height="14" viewBox="0 0 13 14" fill="none" xmlns="http://www.w3.org/2000/svg">
<path d="M4.66236 12.7038L2.9506 13.0676C2.64794 13.1319 2.33212 13.0734 2.07262 12.9049C1.81312 12.7364 1.63119 12.4716 1.56686 12.169L0.717889 8.17488C0.653557 7.87223 0.71209 7.55641 0.880612 7.29691C1.04913 7.03741 1.31384 6.85548 1.6165 6.79115L3.32826 6.4273M7.07979 4.43716L6.59467 2.15481C6.49817 1.70083 6.22528 1.30377 5.83603 1.05099C5.44678 0.798203 4.97305 0.710403 4.51906 0.806901L3.32826 6.4273L4.66236 12.7038L11.0986 11.3357C11.3744 11.2803 11.621 11.1271 11.7928 10.9043C11.9646 10.6814 12.0501 10.404 12.0336 10.1231L11.7294 4.82049C11.7195 4.65166 11.673 4.487 11.5931 4.33794C11.5132 4.18888 11.4018 4.05896 11.2668 3.9572C11.1317 3.85544 10.9761 3.78427 10.8108 3.74861C10.6454 3.71296 10.4743 3.71367 10.3093 3.7507L7.07979 4.43716Z" stroke="black" stroke-width="0.8" stroke-linecap="round" stroke-linejoin="round"/>
</svg>
