<svg width="20" height="20" viewBox="0 0 20 20" fill="none" xmlns="http://www.w3.org/2000/svg">
<circle cx="10" cy="10" r="10" fill="#149F75"/>
<path d="M10.001 15C12.7625 15 15.001 12.7615 15.001 10C15.001 7.2385 12.7625 5 10.001 5C7.23948 5 5.00098 7.2385 5.00098 10C4.99985 10.989 5.29295 11.956 5.84298 12.778C5.90398 12.8687 5.78973 13.443 5.50098 14.5C6.55823 14.2112 7.13223 14.097 7.22298 14.158C8.04495 14.708 9.01196 15.0011 10.001 15Z" fill="white"/>
<path d="M7.65234 10.9991H11.8473M8.15234 8.95409H12.3473H8.15234ZM9.46284 7.93359L8.73459 12.0646L9.46284 7.93359ZM11.2128 7.93359L10.4846 12.0646L11.2128 7.93359Z" stroke="#149F75" stroke-linecap="round" stroke-linejoin="round"/>
</svg>
