<svg width="16" height="16" viewBox="0 0 16 16" fill="none" xmlns="http://www.w3.org/2000/svg">
<g clip-path="url(#clip0_691_19657)">
<path d="M14.5417 2.56247C13.9631 2.97057 13.3225 3.2827 12.6446 3.48685C12.2807 3.06847 11.7971 2.77193 11.2592 2.63734C10.7214 2.50276 10.1551 2.53661 9.63709 2.73433C9.11907 2.93205 8.67427 3.28409 8.36284 3.74284C8.05142 4.2016 7.8884 4.74493 7.89583 5.29935V5.90351C6.83409 5.93104 5.78202 5.69557 4.83332 5.21805C3.88462 4.74054 3.06873 4.03581 2.45833 3.16664C2.45833 3.16664 0.0416667 8.60414 5.47917 11.0208C4.2349 11.8654 2.75266 12.2889 1.25 12.2291C6.6875 15.25 13.3333 12.2291 13.3333 5.28122C13.3328 5.11293 13.3166 4.94506 13.285 4.77976C13.9016 4.17167 14.3367 3.4039 14.5417 2.56247Z" fill="#1E90FF" stroke="#1E90FF" stroke-width="1.4" stroke-linecap="round" stroke-linejoin="round"/>
</g>
<defs>
<clipPath id="clip0_691_19657">
<rect width="14.5" height="14.5" fill="white" transform="translate(0.645508 0.75)"/>
</clipPath>
</defs>
</svg>
