<svg width="48" height="48" viewBox="0 0 48 48" fill="none" xmlns="http://www.w3.org/2000/svg">
<circle cx="24" cy="24" r="24" fill="white"/>
<path d="M34 15.0003C33.0424 15.6758 31.9821 16.1924 30.86 16.5303C30.2577 15.8378 29.4573 15.347 28.567 15.1242C27.6767 14.9015 26.7395 14.9575 25.8821 15.2847C25.0247 15.612 24.2884 16.1947 23.773 16.954C23.2575 17.7133 22.9877 18.6126 23 19.5303V20.5303C21.2426 20.5759 19.5013 20.1861 17.931 19.3957C16.3607 18.6054 15.0103 17.4389 14 16.0003C14 16.0003 10 25.0003 19 29.0003C16.9405 30.3983 14.4872 31.0992 12 31.0003C21 36.0003 32 31.0003 32 19.5003C31.9991 19.2217 31.9723 18.9439 31.92 18.6703C32.9406 17.6638 33.6608 16.393 34 15.0003Z" fill="#1E90FF" stroke="#1E90FF" stroke-width="1.4" stroke-linecap="round" stroke-linejoin="round"/>
</svg>
