<svg width="56" height="56" viewBox="0 0 56 56" fill="none" xmlns="http://www.w3.org/2000/svg">
<circle cx="28" cy="28" r="28" fill="#FFF9EB"/>
<path d="M15.8482 27.3894C16.089 25.2343 16.9184 23.187 18.2456 21.4719C19.5728 19.7569 21.3464 18.4403 23.3722 17.6664C25.398 16.8925 27.5978 16.6913 29.7304 17.0847C31.863 17.478 33.8461 18.4509 35.4625 19.8966C37.0789 21.3423 38.266 23.2051 38.894 25.2808C39.5219 27.3565 39.5663 29.5649 39.0223 31.6642C38.4783 33.7634 37.367 35.6724 35.81 37.1819C34.253 38.6914 32.3106 39.7432 30.1955 40.222C30.4655 39.7969 30.5824 39.2924 30.5271 38.7919C30.4719 38.2913 30.2476 37.8246 29.8914 37.4686L29.8766 37.4538C30.1158 37.1039 30.3491 36.6935 30.5705 36.2181C30.9172 35.4615 31.1939 34.6747 31.3973 33.8677H27.2089C27.3742 33.3982 27.4894 32.9037 27.5469 32.3914H31.7103C31.916 31.1719 32.0182 29.9372 32.0159 28.7004C32.0159 27.3968 31.9081 26.1537 31.7118 25.0095H23.4618C23.4354 25.1642 23.4108 25.3193 23.388 25.4746C22.9263 25.2916 22.4454 25.1613 21.9545 25.0863L21.9663 25.0095H17.9314C17.8206 25.2959 17.7247 25.5897 17.639 25.888C16.957 26.2792 16.3502 26.7885 15.8482 27.3894ZM30.572 21.1828C29.664 19.2369 28.5568 18.3659 27.5868 18.3659C26.6168 18.3659 25.5096 19.2369 24.6016 21.1828C24.256 21.9395 23.9802 22.7262 23.7778 23.5332H31.3988C31.1954 22.7261 30.9187 21.9394 30.572 21.1828ZM22.2556 23.5332C22.5155 22.4362 22.8565 21.4338 23.264 20.5583C23.5386 19.9692 23.856 19.417 24.2118 18.9298C21.8603 19.745 19.8805 21.3789 18.6341 23.5332H22.2571H22.2556ZM36.5395 33.8677H32.9165C32.6819 34.8909 32.3441 35.8877 31.9081 36.8426C31.6335 37.4317 31.3161 37.9838 30.9603 38.471C33.3118 37.6559 35.2916 36.0219 36.538 33.8677H36.5395ZM33.2073 32.3914H37.2422C37.6807 31.2457 37.9214 29.9996 37.9214 28.7004C37.9214 27.4012 37.6807 26.1552 37.2422 25.0095H33.2073C33.3934 26.1729 33.4923 27.416 33.4923 28.7004C33.4923 29.9849 33.3934 31.228 33.2073 32.3914ZM36.5395 23.5332C35.2932 21.3789 33.3134 19.7449 30.9618 18.9298C31.3176 19.417 31.635 19.9692 31.9096 20.5583C32.3171 21.4338 32.6581 22.4362 32.918 23.5332H36.5395ZM25.0829 34.7476C25.8652 33.7014 26.2222 32.3977 26.0821 31.0988C25.9419 29.7999 25.315 28.6024 24.3275 27.7471C23.3399 26.8919 22.0651 26.4424 20.7595 26.4892C19.454 26.536 18.2146 27.0756 17.2908 27.9994C16.367 28.9231 15.8275 30.1625 15.7807 31.4681C15.7339 32.7736 16.1833 34.0485 17.0386 35.036C17.8938 36.0235 19.0914 36.6505 20.3902 36.7906C21.6891 36.9308 22.9929 36.5738 24.0391 35.7914L27.8038 39.5562C27.943 39.6906 28.1295 39.765 28.3231 39.7634C28.5166 39.7617 28.7018 39.684 28.8386 39.5472C28.9755 39.4103 29.0531 39.2252 29.0548 39.0316C29.0565 38.8381 28.9821 38.6516 28.8476 38.5124L25.0829 34.7476ZM24.6341 31.6532C24.6341 32.6321 24.2452 33.5709 23.553 34.263C22.8608 34.9552 21.922 35.3441 20.9431 35.3441C19.9643 35.3441 19.0255 34.9552 18.3333 34.263C17.6411 33.5709 17.2522 32.6321 17.2522 31.6532C17.2522 30.6743 17.6411 29.7355 18.3333 29.0433C19.0255 28.3511 19.9643 27.9623 20.9431 27.9623C21.922 27.9623 22.8608 28.3511 23.553 29.0433C24.2452 29.7355 24.6341 30.6743 24.6341 31.6532Z" fill="#FFB300"/>
</svg>
