<svg width="28" height="28" viewBox="0 0 28 28" fill="none" xmlns="http://www.w3.org/2000/svg">
<path d="M14 20.6663C17.6819 20.6663 20.6667 17.6816 20.6667 13.9997C20.6667 10.3178 17.6819 7.33301 14 7.33301C10.3181 7.33301 7.33337 10.3178 7.33337 13.9997C7.33337 17.6816 10.3181 20.6663 14 20.6663Z" stroke="#149F75" stroke-miterlimit="10"/>
<path d="M13.6583 20.6585C12.0125 18.9251 11 16.5793 11 14.0001C11 11.421 12.0125 9.07513 13.6583 7.3418" stroke="#149F75" stroke-miterlimit="10"/>
<path d="M14.3334 20.6585C15.9792 18.9251 16.9917 16.5793 16.9917 14.0001C16.9917 11.421 15.9792 9.07513 14.3334 7.3418" stroke="#149F75" stroke-miterlimit="10"/>
<path d="M19.3584 17.9663C17.9417 16.9538 16.0584 16.333 14.0001 16.333C11.9376 16.333 10.0584 16.9497 8.64172 17.9663" stroke="#149F75" stroke-miterlimit="10"/>
<path d="M8.64172 10.0332C10.0584 11.0457 11.9417 11.6665 14.0001 11.6665C16.0626 11.6665 17.9417 11.0499 19.3584 10.0332" stroke="#149F75" stroke-miterlimit="10"/>
</svg>
