<svg width="24" height="24" viewBox="0 0 24 24" fill="none" xmlns="http://www.w3.org/2000/svg">
<g clip-path="url(#clip0_2702_23532)">
<path d="M13.1997 24.0001C13.1997 24.0001 13.1997 23.1001 13.1997 21.2001C13.1997 18.2245 15.4441 15.1693 17.0909 13.3273" stroke="#149F75" stroke-miterlimit="10"/>
<path d="M13.2001 21.2C13.2001 17.4748 10.4501 14.4 7.6001 14.4" stroke="#149F75" stroke-miterlimit="10"/>
<path d="M12.0001 14.8C12.0001 14.8 10.9501 10.8 6.4001 10.8C4.6613 10.8 1.6001 12.1752 1.6001 15.2" stroke="#149F75" stroke-miterlimit="10"/>
<path d="M11.9997 11.2C11.9997 7.6248 10.9049 6.4536 9.77734 5.37" stroke="#149F75" stroke-miterlimit="10"/>
<path d="M10 8.80002C11.5464 8.80002 12.8 7.54642 12.8 6.00002C12.8 2.45002 7.7168 2.40002 6 2.40002C6 4.41682 6.7668 8.80002 10 8.80002Z" stroke="#149F75" stroke-miterlimit="10"/>
<path d="M1.6001 15.2003C1.6001 16.8655 2.3825 18.3479 3.6001 19.2995C3.6001 17.5607 3.9105 16.6495 4.6381 15.6955" stroke="#149F75" stroke-miterlimit="10"/>
<path d="M1.6001 15.2C1.6001 14.5372 2.1373 14 2.8001 14C5.2917 14 4.6377 20 9.6001 20C10.6841 20 11.5357 19.8608 12.9489 19.2692" stroke="#149F75" stroke-miterlimit="10"/>
<path d="M21.6002 11.6C21.6002 15.5764 19.451 18.8 16.8002 18.8C14.8626 18.8 14.0002 17.8804 14.0002 17.8804C14.0002 17.8804 13.2002 16.2752 13.2002 14C13.2002 11.8248 14.695 9.71878 16.9502 8.79998C19.2002 7.88318 19.8002 6.73318 20.2002 5.59998C21.1066 7.38918 21.6002 9.45718 21.6002 11.6Z" stroke="#149F75" stroke-miterlimit="10"/>
</g>
<defs>
<clipPath id="clip0_2702_23532">
<rect width="24" height="24" fill="white"/>
</clipPath>
</defs>
</svg>
