<svg width="8" height="26" viewBox="0 0 8 26" fill="none" xmlns="http://www.w3.org/2000/svg">
<path d="M5.13217 8.698C6.13249 8.698 6.94352 9.7119 6.94352 10.9622C6.94352 11.108 6.93265 11.2506 6.91137 11.3892L5.11904 24.0406C5.03617 24.584 4.56658 25.0001 4.00008 25.0001C3.43403 25.0001 2.96489 24.5849 2.88112 24.0424L1.08879 11.3906C1.06796 11.252 1.05664 11.1089 1.05664 10.9622C1.05664 9.7119 1.86767 8.698 2.86799 8.698H5.13217Z" stroke="#149F75" stroke-miterlimit="10"/>
<path d="M1.15674 11.8679H5.13219" stroke="#149F75" stroke-miterlimit="10"/>
<path d="M4.67885 8.69822C5.92913 8.69822 6.94303 7.4819 6.94303 5.9812C6.94303 3.37739 5.54195 2.10356 3.77317 1C3.77317 1 3.6346 1.75805 3.57166 2.00711C3.07988 3.95748 1.05615 3.81619 1.05615 5.9812C1.05615 7.4819 2.07005 8.69822 3.32034 8.69822" stroke="#149F75" stroke-miterlimit="10"/>
</svg>
