<svg width="24" height="24" viewBox="0 0 24 24" fill="none" xmlns="http://www.w3.org/2000/svg">
<path d="M8.7002 1.69995L12.0002 4.99995L15.3002 1.69995" stroke="#149F75" stroke-miterlimit="10"/>
<path d="M12 1V9.5" stroke="#149F75" stroke-miterlimit="10"/>
<path d="M14.1626 10.7501L21.8501 6.31262" stroke="#149F75" stroke-miterlimit="10"/>
<path d="M12 14.4998C13.3807 14.4998 14.5 13.3805 14.5 11.9998C14.5 10.619 13.3807 9.49976 12 9.49976C10.6193 9.49976 9.5 10.619 9.5 11.9998C9.5 13.3805 10.6193 14.4998 12 14.4998Z" stroke="#149F75" stroke-miterlimit="10"/>
<path d="M19.225 4.15625L18.0625 8.5L22.4063 9.6625" stroke="#149F75" stroke-miterlimit="10"/>
<path d="M9.8374 10.7501L2.1499 6.31262" stroke="#149F75" stroke-miterlimit="10"/>
<path d="M1.59375 9.6625L5.9375 8.5L4.775 4.15625" stroke="#149F75" stroke-miterlimit="10"/>
<path d="M8.7002 22.2999L12.0002 18.9999L15.3002 22.2999" stroke="#149F75" stroke-miterlimit="10"/>
<path d="M12 23V14.5" stroke="#149F75" stroke-miterlimit="10"/>
<path d="M14.1626 13.2498L21.8501 17.6873" stroke="#149F75" stroke-miterlimit="10"/>
<path d="M19.225 19.8438L18.0625 15.5L22.4063 14.3375" stroke="#149F75" stroke-miterlimit="10"/>
<path d="M9.8374 13.2498L2.1499 17.6873" stroke="#149F75" stroke-miterlimit="10"/>
<path d="M1.59375 14.3375L5.9375 15.5L4.775 19.8438" stroke="#149F75" stroke-miterlimit="10"/>
</svg>
