<svg width="24" height="24" viewBox="0 0 24 24" fill="none" xmlns="http://www.w3.org/2000/svg">
<path d="M12 9C13.3807 9 14.5 7.88071 14.5 6.5C14.5 5.11929 13.3807 4 12 4C10.6193 4 9.5 5.11929 9.5 6.5C9.5 7.88071 10.6193 9 12 9Z" stroke="#149F75" stroke-miterlimit="10"/>
<path d="M10.7129 8.6438L5.46289 20.5563C7.27592 22.133 9.59768 23.0013 12.0004 23.0013C14.4031 23.0013 16.7249 22.133 18.5379 20.5563L13.2879 8.6438" stroke="#149F75" stroke-miterlimit="10"/>
<path d="M12 4C13.6569 4 15 3.44036 15 2.75C15 2.05964 13.6569 1.5 12 1.5C10.3431 1.5 9 2.05964 9 2.75C9 3.44036 10.3431 4 12 4Z" stroke="#149F75" stroke-miterlimit="10"/>
<path d="M16.4751 15.875C17.7313 17.1438 19.5313 17.9688 21.7251 18C21.1751 17.3125 21.0001 16.4438 21.0001 15.5C20.9991 15.0109 21.0881 14.5257 21.2626 14.0688L21.7688 12.7563C21.9226 12.3618 22.001 11.9421 22.0001 11.5188C22.0012 10.8186 21.7934 10.1341 21.4033 9.55276C21.0132 8.9714 20.4585 8.51962 19.8103 8.25522C19.162 7.99081 18.4496 7.9258 17.7642 8.06849C17.0788 8.21119 16.4515 8.5551 15.9626 9.05625L14.2251 10.775" stroke="#149F75" stroke-miterlimit="10"/>
<path d="M7.52501 15.8813C6.26876 17.15 4.46876 17.975 2.27501 18C2.82501 17.3125 3.00001 16.4438 3.00001 15.5C3.00103 15.0109 2.91205 14.5257 2.73751 14.0688L2.23126 12.7563C2.07753 12.3618 1.99909 11.9421 2.00001 11.5188C1.99894 10.8186 2.20674 10.1341 2.59684 9.55276C2.98694 8.9714 3.54159 8.51962 4.18985 8.25522C4.83812 7.99081 5.55052 7.9258 6.23594 8.06849C6.92135 8.21119 7.54862 8.5551 8.03751 9.05625L9.77501 10.775" stroke="#149F75" stroke-miterlimit="10"/>
</svg>
