<svg width="24" height="24" viewBox="0 0 24 24" fill="none" xmlns="http://www.w3.org/2000/svg">
<path d="M22 16.8125V18.5C22 19.3313 21.2937 20 20.425 20H3.575C2.70625 20 2 19.3313 2 18.5V16.8125" stroke="#149F75" stroke-miterlimit="10"/>
<path d="M15 10.5H14V11.5H15V10.5Z" fill="#149F75"/>
<path d="M9.5 11H8.5V12H9.5V11Z" fill="#149F75"/>
<path d="M12.5 7H11.5V8H12.5V7Z" fill="#149F75"/>
<path d="M6.5 8.5H5.5V9.5H6.5V8.5Z" fill="#149F75"/>
<path d="M18.5 9H17.5V10H18.5V9Z" fill="#149F75"/>
<path d="M11.5938 17H2.83125C1.81875 17 1 16.2188 1 15.25C1 14.2812 1.81875 13.5 2.83125 13.5H21.1688C22.1813 13.5 23 14.2812 23 15.25C23 16.2188 22.1813 17 21.1688 17H14.4062" stroke="#149F75" stroke-miterlimit="10"/>
<path d="M2 13.6875V12C2 7.85625 6.2 4.5 12 4.5C17.8 4.5 22 7.85625 22 12V13.6875" stroke="#149F75" stroke-miterlimit="10"/>
<path d="M6 13.5C6.9672 13.5007 7.90243 13.8464 8.6375 14.475L13 18.2L17.3625 14.475C18.0976 13.8464 19.0328 13.5007 20 13.5" stroke="#149F75" stroke-miterlimit="10"/>
</svg>
