<svg width="24" height="24" viewBox="0 0 24 24" fill="none" xmlns="http://www.w3.org/2000/svg">
<path d="M21.9147 11.664C21.0522 7.76491 19.773 5.27772 17.7227 4.67163C17.3256 4.55579 16.9138 4.498 16.5002 4.50006C15.2397 4.50006 14.245 5.25006 12.0002 5.25006C9.75536 5.25006 8.7588 4.50006 7.5002 4.50006C7.0693 4.49783 6.64019 4.55557 6.2252 4.67163C4.17208 5.27772 2.90364 7.76725 2.0313 11.664C1.14068 15.6441 1.30193 18.789 3.04286 19.3927C4.26161 19.8146 5.35145 18.9423 6.38364 17.6584C7.55552 16.1959 8.9988 15.7459 12.0002 15.7459C15.0016 15.7459 16.3886 16.1959 17.5624 17.6584C18.5936 18.9432 19.7238 19.8048 20.9102 19.4002C22.833 18.7435 22.8058 15.691 21.9147 11.664Z" stroke="#149F75" stroke-width="1.33333" stroke-miterlimit="10"/>
<path d="M15.2731 9.60612C15.4683 9.41085 15.4683 9.09427 15.2731 8.89901C15.0778 8.70375 14.7612 8.70375 14.566 8.89901C14.3707 9.09427 14.3707 9.41085 14.566 9.60612C14.7612 9.80138 15.0778 9.80138 15.2731 9.60612Z" fill="#149F75"/>
<path d="M18.8087 13.1416C18.7387 13.2116 18.6496 13.2592 18.5525 13.2785C18.4555 13.2978 18.3549 13.2878 18.2635 13.2499C18.1721 13.212 18.0941 13.1478 18.0392 13.0655C17.9843 12.9832 17.955 12.8864 17.9552 12.7875C17.9553 12.6885 17.9848 12.5918 18.0399 12.5097C18.095 12.4275 18.1732 12.3635 18.2647 12.3258C18.3562 12.2881 18.4568 12.2784 18.5538 12.2979C18.6508 12.3174 18.7398 12.3653 18.8096 12.4354C18.903 12.5293 18.9553 12.6563 18.9552 12.7887C18.955 12.9211 18.9023 13.048 18.8087 13.1416V13.1416Z" fill="#149F75"/>
<path d="M15.7272 12.9867C15.9224 12.7915 15.9224 12.4749 15.7272 12.2796C15.5319 12.0844 15.2153 12.0844 15.0201 12.2796C14.8248 12.4749 14.8248 12.7915 15.0201 12.9867C15.2153 13.182 15.5319 13.182 15.7272 12.9867Z" fill="#149F75"/>
<path d="M18.3199 10.394C18.5152 10.1987 18.5152 9.88211 18.3199 9.68685C18.1247 9.49159 17.8081 9.49159 17.6128 9.68685C17.4176 9.88211 17.4176 10.1987 17.6128 10.394C17.8081 10.5892 18.1247 10.5892 18.3199 10.394Z" fill="#149F75"/>
<path d="M7.5 8.25V12.75" stroke="#149F75" stroke-width="1.33333" stroke-linecap="round" stroke-linejoin="round"/>
<path d="M9.75 10.5H5.25" stroke="#149F75" stroke-width="1.33333" stroke-linecap="round" stroke-linejoin="round"/>
</svg>
