<svg width="24" height="24" viewBox="0 0 24 24" fill="none" xmlns="http://www.w3.org/2000/svg">
<path d="M9.13135 10.5129L14.8688 5.48792" stroke="#149F75" stroke-miterlimit="10"/>
<path d="M3.10645 7.01306L6.89395 10.4881" stroke="#149F75" stroke-miterlimit="10"/>
<path d="M16 6.00049C16.8284 6.00049 17.5 5.32891 17.5 4.50049C17.5 3.67206 16.8284 3.00049 16 3.00049C15.1716 3.00049 14.5 3.67206 14.5 4.50049C14.5 5.32891 15.1716 6.00049 16 6.00049Z" stroke="#149F75" stroke-miterlimit="10"/>
<path d="M2 7.50037C2.82843 7.50037 3.5 6.82879 3.5 6.00037C3.5 5.17194 2.82843 4.50037 2 4.50037C1.17157 4.50037 0.5 5.17194 0.5 6.00037C0.5 6.82879 1.17157 7.50037 2 7.50037Z" stroke="#149F75" stroke-miterlimit="10"/>
<path d="M8 13.0007C8.82843 13.0007 9.5 12.3292 9.5 11.5007C9.5 10.6723 8.82843 10.0007 8 10.0007C7.17157 10.0007 6.5 10.6723 6.5 11.5007C6.5 12.3292 7.17157 13.0007 8 13.0007Z" stroke="#149F75" stroke-miterlimit="10"/>
<path d="M17.2002 5.40063L20.8002 8.10064" stroke="#149F75" stroke-miterlimit="10"/>
<path d="M22 10.5005C22.8284 10.5005 23.5 9.82892 23.5 9.00049C23.5 8.17206 22.8284 7.50049 22 7.50049C21.1716 7.50049 20.5 8.17206 20.5 9.00049C20.5 9.82892 21.1716 10.5005 22 10.5005Z" stroke="#149F75" stroke-miterlimit="10"/>
<path d="M22 13.0007V21.0007H2V10.0007" stroke="#149F75" stroke-miterlimit="10"/>
<path d="M8 21.0004V15.5004" stroke="#149F75" stroke-miterlimit="10"/>
<path d="M16 21.0005V8.50049" stroke="#149F75" stroke-miterlimit="10"/>
</svg>
