<svg width="26" height="26" viewBox="0 0 26 26" fill="none" xmlns="http://www.w3.org/2000/svg">
<path d="M18.6 6.3999L16 8.9999L18.588 11.5879" stroke="#149F75" stroke-miterlimit="10"/>
<path d="M9.39799 6.39795L12 8.99995L9.396 11.6039" stroke="#149F75" stroke-miterlimit="10"/>
<path d="M13 1C6.373 1 1 6.373 1 13C1 14.732 1.375 16.374 2.035 17.861L4.5 21.5L8.139 23.965C9.626 24.626 11.268 25 13 25C19.627 25 25 19.627 25 13C25 6.373 19.627 1 13 1Z" stroke="#149F75" stroke-miterlimit="10"/>
<path d="M9 16C9 18.209 11.239 20 14 20C16.761 20 19 18.209 19 16V15H9V16Z" stroke="#149F75" stroke-miterlimit="10"/>
</svg>
