<svg width="24" height="24" viewBox="0 0 24 24" fill="none" xmlns="http://www.w3.org/2000/svg">
<path d="M17.1997 10.1059V5.28069C17.1997 5.01549 17.4149 4.80029 17.6801 4.80029H22.3189C22.5845 4.80029 22.7997 5.01549 22.7997 5.28069V22.0003" stroke="#149F75" stroke-miterlimit="10"/>
<path d="M11.1997 22.0003V11.5062C11.1997 11.3569 11.2961 11.2263 11.4349 11.1862L17.4981 9.63341C17.5653 9.6115 17.6353 9.60034 17.7057 9.60034C18.0889 9.60076 18.3997 9.9219 18.3997 10.3179V22.0003" stroke="#149F75" stroke-miterlimit="10"/>
<path d="M12.3999 13.2003H15.9999" stroke="#149F75" stroke-miterlimit="10"/>
<path d="M12.8003 15.2004H13.6003" stroke="#149F75" stroke-miterlimit="10"/>
<path d="M14.3999 15.2003H17.1999" stroke="#149F75" stroke-miterlimit="10"/>
<path d="M1.2002 22.0003V9.21509C1.2002 8.98589 1.3858 8.80029 1.615 8.80029H8.7854C9.0146 8.80029 9.2002 8.98589 9.2002 9.21509V22.0003" stroke="#149F75" stroke-miterlimit="10"/>
<path d="M2 8.80034V6.02914C2 5.79234 2.192 5.60034 2.4288 5.60034H7.9712C8.208 5.60034 8.4 5.79234 8.4 6.02914V8.80034" stroke="#149F75" stroke-miterlimit="10"/>
<path d="M3.2002 5.60032V3.62232C3.2002 3.38912 3.389 3.20032 3.6222 3.20032H6.7782C7.0114 3.20032 7.2002 3.38912 7.2002 3.62232V5.60032" stroke="#149F75" stroke-miterlimit="10"/>
<path d="M5.19971 0.800293V3.20029" stroke="#149F75" stroke-miterlimit="10"/>
<path d="M7.2002 14.4003V16.4003" stroke="#149F75" stroke-miterlimit="10"/>
<path d="M3.2002 14.4003V16.4003" stroke="#149F75" stroke-miterlimit="10"/>
<path d="M7.2002 10.8003V12.8003" stroke="#149F75" stroke-miterlimit="10"/>
<path d="M3.2002 10.8003V12.8003" stroke="#149F75" stroke-miterlimit="10"/>
<path d="M0 22.0002H24" stroke="#149F75" stroke-miterlimit="10"/>
</svg>
