<svg width="24" height="24" viewBox="0 0 24 24" fill="none" xmlns="http://www.w3.org/2000/svg">
<path d="M20.8401 4.61012C20.3294 4.09912 19.7229 3.69376 19.0555 3.4172C18.388 3.14064 17.6726 2.99829 16.9501 2.99829C16.2276 2.99829 15.5122 3.14064 14.8448 3.4172C14.1773 3.69376 13.5709 4.09912 13.0601 4.61012L12.0001 5.67012L10.9401 4.61012C9.90843 3.57842 8.50915 2.99883 7.05012 2.99883C5.59109 2.99883 4.19181 3.57842 3.16012 4.61012C2.12843 5.64181 1.54883 7.04108 1.54883 8.50012C1.54883 9.95915 2.12843 11.3584 3.16012 12.3901L4.22012 13.4501L12.0001 21.2301L19.7801 13.4501L20.8401 12.3901C21.3511 11.8794 21.7565 11.2729 22.033 10.6055C22.3096 9.93801 22.4519 9.2226 22.4519 8.50012C22.4519 7.77763 22.3096 7.06222 22.033 6.39476C21.7565 5.7273 21.3511 5.12087 20.8401 4.61012V4.61012Z" stroke="#149F75" stroke-linecap="round" stroke-linejoin="round"/>
</svg>
