<svg width="24" height="24" viewBox="0 0 24 24" fill="none" xmlns="http://www.w3.org/2000/svg">
<path d="M12 22.0005C17.5229 22.0005 22 17.5233 22 12.0005C22 6.47764 17.5229 2.00049 12 2.00049C6.47715 2.00049 2 6.47764 2 12.0005C2 17.5233 6.47715 22.0005 12 22.0005Z" stroke="#149F75" stroke-miterlimit="10"/>
<path d="M20.081 6.10596L3.91846 17.8935" stroke="#149F75" stroke-miterlimit="10"/>
<path d="M2.3623 9.31853C4.44355 8.50603 7.32481 7.99978 10.4998 7.99978C11.9135 7.99994 13.2818 7.50094 14.3635 6.59076C15.4452 5.68058 16.1708 4.41768 16.4123 3.02478" stroke="#149F75" stroke-miterlimit="10"/>
<path d="M21.9 10.5688C20.4907 10.3577 19.0523 10.6541 17.8412 11.405C16.6301 12.1559 15.7251 13.3126 15.2875 14.6688C14.3187 17.6875 12.9687 20.2563 11.5625 21.9875" stroke="#149F75" stroke-miterlimit="10"/>
<path d="M19.4877 18.6249C19.4939 18.4186 19.5002 18.1999 19.5002 17.9999C19.5002 10.8249 14.7752 4.74988 8.2627 2.71863" stroke="#149F75" stroke-miterlimit="10"/>
</svg>
