<svg width="24" height="24" viewBox="0 0 24 24" fill="none" xmlns="http://www.w3.org/2000/svg">
<path d="M2.12842 22.8002L3.38802 19.6762C3.51682 19.387 3.80442 19.2002 4.12122 19.2002H9.47882C9.79562 19.2002 10.0832 19.387 10.212 19.6762L11.4464 22.8002" stroke="#149F75" stroke-miterlimit="10"/>
<path d="M9.2002 10.6421V19.2001" stroke="#149F75" stroke-miterlimit="10"/>
<path d="M4.40039 19.2001V10.6421" stroke="#149F75" stroke-miterlimit="10"/>
<path d="M6.80049 12C8.34689 12 9.60049 10.7464 9.60049 9.20002C9.60049 7.65363 8.34689 6.40002 6.80049 6.40002C5.25409 6.40002 4.00049 7.65363 4.00049 9.20002C4.00049 10.7464 5.25409 12 6.80049 12Z" stroke="#149F75" stroke-miterlimit="10"/>
<path d="M14 6.80005C15.1046 6.80005 16 5.90462 16 4.80005C16 3.69548 15.1046 2.80005 14 2.80005C12.8954 2.80005 12 3.69548 12 4.80005C12 5.90462 12.8954 6.80005 14 6.80005Z" stroke="#149F75" stroke-miterlimit="10"/>
<path d="M18.4004 12C19.505 12 20.4004 11.1046 20.4004 10C20.4004 8.89543 19.505 8 18.4004 8C17.2958 8 16.4004 8.89543 16.4004 10C16.4004 11.1046 17.2958 12 18.4004 12Z" stroke="#149F75" stroke-miterlimit="10"/>
<path d="M18.2836 8.0048L15.9492 5.24561" stroke="#149F75" stroke-miterlimit="10"/>
<path d="M16.4511 9.55421L14.1167 6.79541" stroke="#149F75" stroke-miterlimit="10"/>
<path d="M12.009 4.61035L8.33301 6.85755" stroke="#149F75" stroke-miterlimit="10"/>
<path d="M13.2609 6.65845L9.58447 8.90485" stroke="#149F75" stroke-miterlimit="10"/>
<path d="M20.2816 10.6781L22.2368 13.6537C22.3396 13.8109 22.4004 13.9981 22.4004 14.2001C22.4004 14.3937 22.3428 14.5733 22.2472 14.7265L20.676 17.2245C20.5348 17.4497 20.2856 17.6001 20.0004 17.6001C19.5588 17.6001 19.2004 17.2417 19.2004 16.8001C19.2004 16.6825 19.2272 16.5713 19.2732 16.4705L20.2408 14.3361L18.4316 12.0001" stroke="#149F75" stroke-miterlimit="10"/>
<path d="M16.5192 10.6781L14.564 13.6537C14.4612 13.8109 14.4004 13.9981 14.4004 14.2001C14.4004 14.3937 14.4584 14.5733 14.5536 14.7265L16.1248 17.2245C16.266 17.4497 16.5152 17.6001 16.8004 17.6001C17.242 17.6001 17.6004 17.2417 17.6004 16.8001C17.6004 16.6825 17.5736 16.5713 17.5276 16.4705L16.5596 14.3361L18.3688 11.9997" stroke="#149F75" stroke-miterlimit="10"/>
<path d="M0.800293 22.8H20.8003" stroke="#149F75" stroke-miterlimit="10"/>
<path d="M21.6001 22.8H22.4001" stroke="#149F75" stroke-miterlimit="10"/>
</svg>
