<svg width="24" height="24" viewBox="0 0 24 24" fill="none" xmlns="http://www.w3.org/2000/svg">
<path d="M11.1999 13.6H10.3999V14.4H11.1999V13.6Z" fill="#149F75"/>
<path d="M12.4001 12.4H11.6001V13.2H12.4001V12.4Z" fill="#149F75"/>
<path d="M10.0002 14.8H9.2002V15.6H10.0002V14.8Z" fill="#149F75"/>
<path d="M9.59961 4.60005L13.124 5.89845C13.3088 5.96565 13.504 6.00005 13.7004 6.00005C14.0752 6.00005 14.4392 5.87525 14.7352 5.64565L17.8352 3.23845C18.2008 2.95445 18.6508 2.80005 19.114 2.80005C20.266 2.80005 21.1996 3.73365 21.1996 4.88565C21.1996 5.34885 21.0452 5.79885 20.7612 6.16485L18.354 9.26485C18.1244 9.56045 17.9996 9.92445 17.9996 10.2992C17.9996 10.4956 18.034 10.6908 18.1012 10.8756L20.2368 16.7516C20.3444 17.048 20.3996 17.3616 20.3996 17.6772C20.3996 18.396 20.114 19.0856 19.6056 19.594L18.566 20.6336C18.4596 20.74 18.3152 20.7996 18.1644 20.8C17.9452 20.8008 17.7448 20.6772 17.6488 20.48L16.9704 19.0872L15.5996 16.2" stroke="#149F75" stroke-miterlimit="10"/>
<path d="M18.4001 6.40002H17.6001V7.20002H18.4001V6.40002Z" fill="#149F75"/>
<path d="M19.5998 5.19971H18.7998V5.99971H19.5998V5.19971Z" fill="#149F75"/>
<path d="M17.1999 7.59998H16.3999V8.39998H17.1999V7.59998Z" fill="#149F75"/>
<path d="M15.8091 16.7019L14.3767 13.7611C14.3255 13.6559 14.2219 13.5995 14.1171 13.5999C14.0455 13.6003 13.9731 13.6275 13.9163 13.6839L9.83469 17.7655C9.68469 17.9155 9.60029 18.1191 9.60029 18.3311V21.7335C9.60029 21.8883 9.55509 22.0403 9.47069 22.1699L9.06549 22.7923C8.90029 23.0467 8.61749 23.1999 8.31389 23.1999C7.89629 23.1999 7.53389 22.9115 7.43989 22.5047L6.43789 18.1623C6.36909 17.8643 6.13629 17.6315 5.83829 17.5627L1.49549 16.5603C1.08869 16.4663 0.800293 16.1039 0.800293 15.6863C0.800293 15.3831 0.953493 15.0999 1.20789 14.9347L1.83029 14.5295C1.95989 14.4447 2.11189 14.3999 2.26669 14.3999H5.66909C5.88109 14.3999 6.08469 14.3155 6.23469 14.1655L10.3163 10.0839C10.3727 10.0275 10.3999 9.95505 10.4003 9.88305C10.4007 9.77825 10.3443 9.67465 10.2391 9.62345L3.52029 6.35065C3.32309 6.25465 3.19949 6.05425 3.20029 5.83505C3.20069 5.68425 3.25989 5.54025 3.36669 5.43345L4.40629 4.39385C4.91469 3.88545 5.60429 3.59985 6.32309 3.59985C6.63869 3.59985 6.95229 3.65505 7.24909 3.76305L9.90709 4.72905" stroke="#149F75" stroke-miterlimit="10"/>
</svg>
