<svg width="24" height="24" viewBox="0 0 24 24" fill="none" xmlns="http://www.w3.org/2000/svg">
<path d="M12 21.9995C17.5228 21.9995 22 17.5224 22 11.9995C22 6.47666 17.5228 1.99951 12 1.99951C6.47715 1.99951 2 6.47666 2 11.9995C2 17.5224 6.47715 21.9995 12 21.9995Z" stroke="#149F75" stroke-miterlimit="10"/>
<path d="M11.4875 21.987C9.01875 19.387 7.5 15.8682 7.5 11.9995C7.5 8.13071 9.01875 4.61196 11.4875 2.01196" stroke="#149F75" stroke-miterlimit="10"/>
<path d="M12.5 21.987C14.9687 19.387 16.4875 15.8682 16.4875 11.9995C16.4875 8.13071 14.9687 4.61196 12.5 2.01196" stroke="#149F75" stroke-miterlimit="10"/>
<path d="M20.0374 17.9495C17.9124 16.4308 15.0874 15.4995 11.9999 15.4995C8.90615 15.4995 6.0874 16.4245 3.9624 17.9495" stroke="#149F75" stroke-miterlimit="10"/>
<path d="M3.96289 6.0498C6.08789 7.56855 8.91289 8.4998 12.0004 8.4998C15.0941 8.4998 17.9129 7.5748 20.0379 6.0498" stroke="#149F75" stroke-miterlimit="10"/>
</svg>
